<?xml version="1.0" encoding="utf-8"?>
<!-- Generator: Adobe Illustrator 23.0.3, SVG Export Plug-In . SVG Version: 6.00 Build 0)  -->
<svg version="1.1" id="Layer_1" xmlns="http://www.w3.org/2000/svg" xmlns:xlink="http://www.w3.org/1999/xlink" x="0px" y="0px"
	 viewBox="0 0 236 101" style="enable-background:new 0 0 236 101;" xml:space="preserve">
<style type="text/css">
	.st0{fill:#1E283B;}
	.st1{fill:#12416B;}
	.st2{fill:#4C9F46;}
	.st3{fill:#FFFFFF;}
	.st4{fill:#4D9F46;}
</style>
<path class="st0" d="M75.5,43.7c3.5,20.9-9.6,40.1-30.4,44.2c-2.1,0.4-4.2,0.8-6.4,0.5c-0.4,0-0.8,0-1.1,0.1
	C17.5,88.5,1.2,72.2,0.1,53c-1.3-21.9,15.1-38.7,34.6-40.4c2.2-0.2,4.5-0.3,6.7,0.1C57.7,13.4,72.7,27.1,75.5,43.7z"/>
<path class="st1" d="M95.5,66.1v-1.7c0-1.2,0-2.5,0-3.7c0-0.5-0.1-1,0.6-1.1c0.8,0,0.8,0.6,0.8,1.1c0,1.7,0.1,3.5,0,5.2
	c-0.2,1.7,0.4,2.3,2.1,2.2c0.8-0.1,2.3-0.7,2.3,0.6c0,1.3-1.6,0.6-2.4,0.6C95.5,69.5,95.5,69.4,95.5,66.1z"/>
<path class="st1" d="M101.7,81.5c-0.5-0.6-0.8-0.8-0.3-1.7c1.1-1.8,0.2-3.4-2-3.7c-3.7-0.6-4-0.3-4,3.3v1.5c0,1.3,0,2.6,0,3.9
	c0,0.5,0,1.1,0.7,1.1c1.6,0,3.2,0.3,4.7-0.4C102.5,84.7,102.9,82.9,101.7,81.5z M96.8,78.4c-0.1-1.5,1.1-1.1,1.9-1.1
	c0.9,0,1.7,0.4,1.5,1.5c-0.2,1.4-1.4,1.3-2.1,1.3C96.5,80.2,96.9,79.2,96.8,78.4z M98.2,84.7c-1.3,0.2-1.5-0.6-1.4-1.7
	c-0.2-1.1,0.1-1.8,1.5-1.7c1.2,0.1,2.4,0.1,2.3,1.7C100.6,84.6,99.3,84.5,98.2,84.7z"/>
<path class="st1" d="M102.5,38.6c-0.6-0.6-0.6-0.8-0.1-1.5c1-1.4,0.3-3-1.2-3.5c-0.7-0.2-1.5-0.2-2.2-0.3c-2.2-0.4-2.9,0.5-2.6,2.6
	c0.2,1.4,0,2.8,0,4.1c0,3.6,0,3.6,3.6,3.2c0.4,0,0.8-0.1,1.2-0.2C103.2,42.4,103.9,40.3,102.5,38.6z M97.7,36c0-1,0.3-1.6,1.3-1.4
	c1.1,0,2.2,0,2.1,1.4c0,1.3-1,1.2-1.9,1.3C98.2,37.4,97.6,37.2,97.7,36z M99,41.8c-0.9,0.2-1.4-0.2-1.3-1.4c0-1.1,0.1-1.9,1.5-1.7
	c1.1,0.1,2.4,0,2.3,1.7C101.5,41.9,100.3,41.8,99,41.8z"/>
<path class="st1" d="M102.8,60.5c-0.5,0.8-0.2,2.2-1.6,2.6c-0.4,0.1-0.7-0.3-0.5-0.7c0.5-1,0-2.4,1.5-2.8
	C102.5,59.5,103,59.7,102.8,60.5z"/>
<path class="st1" d="M95.2,17.6c0-0.7,0.5-0.7,1-0.7c1.9,0,3.7,0,5.6,0c0.5,0,1.1,0,1.1,0.6c0.1,0.8-0.6,0.8-1.2,0.8
	c-1.8-0.3-2.1,0.6-2,2.2c0.1,1.7,0,3.5,0,5.2c0,0.6,0,1.2-0.8,1.1c-0.7,0-0.6-0.7-0.6-1.1c0-1,0-2.1,0-3.1c0-0.6-0.1-1.3,0-1.9
	c0.2-1.6-0.1-2.8-2.1-2.4C95.9,18.3,95.3,18.3,95.2,17.6z"/>
<path class="st1" d="M104.2,25.2c0-2.4,0-4.7,0-7.1c0-0.5-0.1-1.2,0.7-1.2c0.8,0,0.7,0.7,0.7,1.2c0.1,0.9-0.5,2.1,0.3,2.6
	c1.1,0.6,2.4,0.2,3.7,0.2c0.8,0,0.9-0.5,0.9-1.1c0-0.6,0-1.3,0-1.9c0-0.5,0.1-1,0.7-1c0.7,0,0.8,0.5,0.8,1c0,1.3,0,2.6,0,4
	c0,1.3,0,2.6,0,4c0,0.4-0.1,0.8-0.6,0.9c-0.7,0-0.8-0.4-0.8-0.9c0-0.4-0.1-0.8,0-1.2c0.3-1.7-0.2-2.5-2.2-2.3
	c-2.6,0.2-2.6,0-2.7,2.9c0,0.6,0.4,1.6-0.8,1.6C104,26.7,104.2,25.8,104.2,25.2z"/>
<path class="st1" d="M112.3,85c-1.2-2.8-2.4-5.7-3.8-8.5c-0.5-1-1.4-0.4-1.8,0.5c-1.1,2.5-2.2,5.1-3.4,7.6c-0.2,0.4-0.6,1,0,1.2
	c0.5,0.2,1.2,0.1,1.3-0.6c0.4-1.7,1.5-1.8,3-1.8c1.4,0,2.6,0,3,1.7c0.1,0.5,0.6,0.7,1.1,0.7C112.2,85.9,112.4,85.6,112.3,85z
	 M109.1,81.9c-0.1,0.7-1.8,0.3-2.9,0.2c0.2-1.4,0.8-2.5,1.5-4.1C108.4,79.7,109.3,80.9,109.1,81.9z"/>
<path class="st1" d="M113.1,68.7c0-0.1-0.1-0.2-0.1-0.3c-1.1-2.7-2.3-5.3-3.4-8c-0.2-0.5-0.5-0.8-1.1-0.8c-0.7,0-0.9,0.6-1.1,1.1
	c-1.1,2.4-2.1,4.8-3.1,7.2c-0.2,0.4-1,1.1,0,1.5c0.7,0.3,1.1-0.2,1.4-0.9c0.3-0.6,0.2-1.6,1.2-1.5c1.7,0.2,3.9-1.1,4.6,1.7
	c0.2,0.7,0.8,0.7,1.3,0.6C113.1,69.3,113.2,69.1,113.1,68.7z M108.6,65.9c-1.4,0-2-0.3-1.2-1.7c0.4-0.7,0.6-1.4,1-2.2
	c0.9,0.6,1,1.5,1.3,2.2C110.2,65.4,110.1,65.9,108.6,65.9z"/>
<path class="st1" d="M113.3,42.6c-0.1-0.2-0.1-0.3-0.2-0.4c-1.1-2.7-2.3-5.3-3.4-8c-0.2-0.5-0.5-0.8-1.1-0.8c-0.7,0-0.9,0.5-1.1,1
	c-1.1,2.5-2.2,4.9-3.3,7.4c-0.2,0.5-0.7,1.1,0,1.4c0.6,0.3,1.2,0,1.5-0.7c0.2-0.6,0.3-1.5,1.1-1.6c1.2-0.1,2.4-0.1,3.5,0
	c0.9,0.1,0.9,1.1,1.2,1.8c0.3,0.5,0.6,0.7,1.2,0.6C113.2,43.2,113.4,43,113.3,42.6z M108.8,39.6c-1.6,0-2.1-0.3-1.2-1.8
	c0.4-0.6,0.6-1.3,1.1-2.4c0.5,1.1,0.8,1.8,1.1,2.5C110.2,38.8,110.5,39.6,108.8,39.6z"/>
<path class="st1" d="M118.6,67.2c0.3-1-0.3-1.4-1.1-1.7c-0.5-0.2-1.1-0.3-1.6-0.6c-1.3-0.5-2-1.4-1.9-2.9c0.1-1.2,0.7-2.1,1.9-2.5
	c1.3-0.4,2.6-0.4,3.8,0.4c0.3,0.2,0.4,0.5,0.2,0.9c-0.2,0.4-0.5,0.7-1,0.5c-0.4-0.2-0.7-0.4-1.1-0.5c-0.9-0.2-1.7,0-2,1
	c-0.3,0.9,0.3,1.4,1.1,1.7c0.4,0.1,0.8,0.3,1.2,0.4c1.6,0.5,2.6,1.5,2.3,3.2c-0.3,1.9-1.7,2.6-2.9,2.6c-1.4,0-2.3-0.2-3-0.7
	c-0.4-0.3-0.9-0.6-0.3-1.1c0.3-0.3,0.7-0.8,1.2-0.3c0.4,0.4,0.9,0.6,1.5,0.7C117.6,68.3,118.3,68.1,118.6,67.2z"/>
<path class="st1" d="M118.2,81.6c1.5-0.7,2.6-1.8,2.1-3.6c-0.5-1.9-2.1-2-3.7-2c-0.5,0-1,0-1.5,0c-1.1-0.1-1.4,0.4-1.4,1.5
	c0.1,2.3,0,4.6,0,6.9c0,0.6-0.2,1.6,0.9,1.5c1-0.1,0.5-0.9,0.6-1.5c0.2-0.9-0.6-2.3,0.5-2.6c1.5-0.5,1.5,1.3,2.1,2.1
	c0.3,0.4,0.5,0.8,0.7,1.2c0.4,0.9,1.1,0.9,2.2,0.6C119.8,84.3,119,83,118.2,81.6z M116.5,80.3c-1.3,0.3-1.3-0.6-1.3-1.6
	c0-1.1,0.3-1.5,1.4-1.4c1.1,0.1,2.3,0.1,2.3,1.5C118.8,80.2,117.7,80.3,116.5,80.3z"/>
<path class="st1" d="M114.3,25.6c0-1.3,0-2.5,0-3.8v-0.4c0-5,0.3-5.2,5.4-4.6c0.5,0.1,1,0,1,0.7c0,0.7-0.6,0.6-1.1,0.6
	c-0.7,0-1.4,0-2.1,0c-1.1-0.1-1.6,0.1-1.7,1.4c0,1.4,0.7,1.3,1.7,1.4c0.9,0.1,2.7-0.9,2.7,0.7c0,1.2-1.7,0.5-2.7,0.6
	c-1,0.1-1.7,0.1-1.7,1.4c0,1.2,0.3,1.8,1.6,1.7c0.9-0.1,1.8,0,2.7,0c0.4,0,0.9,0,0.8,0.6c0,0.5-0.4,0.7-0.9,0.7c-1.6,0-3.2,0-4.8,0
	C114.5,26.8,114.3,26.3,114.3,25.6z"/>
<path class="st1" d="M120.9,41.9c-0.2-0.5-0.6-0.9-0.9-1.4c-0.6-0.9-1.1-1.5,0.3-2.4c1.6-1,1.3-3.5-0.3-4.3
	c-1.6-0.7-3.4-0.7-4.9-0.2c-1.2,0.4-0.3,2.1-0.5,3.2c-0.1,0.5,0,1.1,0,1.7c0,1.2,0,2.5,0,3.7c0,0.5,0,1.1,0.7,1.1
	c0.8,0,0.8-0.6,0.8-1.1c0-0.7,0-1.4,0-2.1c0-0.4-0.2-1,0.6-1.1c0.6-0.1,0.9,0.2,1.2,0.6c0.6,1.1,1.2,2.2,1.9,3.2
	c0.3,0.6,1,0.7,1.5,0.4C121.9,42.8,121.1,42.3,120.9,41.9z M117.3,37.6c-1.2,0.1-1.3-0.5-1.3-1.5c0-1.1,0.3-1.7,1.4-1.5
	c1.2,0,2.3,0.2,2.3,1.6C119.6,37.6,118.4,37.5,117.3,37.6z"/>
<path class="st1" d="M123,69.5c-0.6-0.3-1.8-0.4-1.3-1.4c0.4-1.1,1.2-0.4,1.8,0c1,0.5,2.1,0.5,2.7-0.7c0.6-1.3-0.6-1.6-1.5-2
	c-0.4-0.2-0.8-0.2-1.2-0.4c-1.2-0.5-1.9-1.4-1.9-2.7c0-1.3,0.7-2.2,2-2.6c1.3-0.4,2.6-0.4,3.8,0.5c0.3,0.2,0.4,0.6,0.1,0.9
	c-0.3,0.3-0.6,0.6-1.1,0.4c-0.4-0.2-0.9-0.5-1.3-0.5c-0.8-0.1-1.6,0.2-1.8,1.1c-0.3,0.8,0.3,1.3,1,1.6c0.4,0.2,0.9,0.3,1.4,0.5
	c1.5,0.5,2.6,1.4,2.3,3.2c-0.4,1.9-1.7,2.5-3.6,2.6C123.9,69.7,123.4,69.7,123,69.5z"/>
<path class="st1" d="M128.6,84.8c-0.9-1.5-2.9-3-0.1-4.7c0.3-0.2,0.5-0.9,0.4-1.3c-0.1-1.1-0.4-2.1-1.6-2.4c-1.6-0.5-3.3-0.5-4.9,0
	c-0.2,0.1-0.2,0.8-0.2,1.2c0,2.4,0,4.7,0,7.1c0,0.6-0.1,1.4,0.8,1.3c0.8-0.1,0.5-0.8,0.6-1.3c0.2-0.9-0.6-2.4,0.6-2.8
	c1.4-0.4,1.4,1.4,2.1,2.1c0.3,0.3,0.5,0.7,0.6,1.1c0.5,0.9,1.1,1.1,2.2,0.6C128.8,85.3,128.7,85,128.6,84.8z M124.9,80.3
	c-1.1,0.2-1.4-0.4-1.4-1.5c0-1.2,0.5-1.5,1.6-1.5c1,0.1,2,0.2,2.1,1.5C127.2,80.2,126.1,80.3,124.9,80.3z"/>
<path class="st1" d="M126,21.8c0-3.9,3.8-6.4,7.2-4.6c0.5,0.3,1.4,0.4,1,1.3c-0.3,0.7-0.9,0.5-1.6,0.2c-1.7-1-3.2-0.6-4.4,0.9
	c-1.1,1.4-1,3.7,0.2,5c1.3,1.4,2.9,1.5,4.5,0.4c0.6-0.4,1-0.4,1.4,0.1c0.6,0.7-0.2,1-0.6,1.2c-1.6,1.1-3.4,1.1-5.1,0.2
	C126.8,25.4,125.9,23.9,126,21.8z"/>
<path class="st1" d="M135.2,42.6c-1.3-3-2.5-6-3.9-8.9c-0.4-0.8-1.4-0.4-1.7,0.5c-1.1,2.6-2.3,5.2-3.4,7.8c-0.2,0.4-0.7,0.9,0,1.2
	c0.5,0.2,1,0.1,1.4-0.5c0.3-0.6,0.4-1.8,1.2-1.7c1.7,0.1,4-1.2,4.8,1.7c0.2,0.6,0.8,0.7,1.4,0.6C135.1,43.2,135.3,42.9,135.2,42.6z
	 M131.7,39.3c-0.5,0.3-1.3,0.2-2,0.2c-0.7,0-0.9-0.3-0.6-0.9c0.4-1,0.8-1.9,1.3-3.2c0.5,1,0.8,1.6,1.1,2.2
	C131.6,38.2,132.3,38.9,131.7,39.3z"/>
<path class="st1" d="M134.4,59.3c-3-0.1-5.3,2.2-5.3,5.2c0,3,2.2,5.2,5.1,5.2c2.9,0,5.1-2.1,5.2-5.1
	C139.4,61.6,137.4,59.4,134.4,59.3z M134.3,68.4c-1.9,0-3.6-1.8-3.6-3.9c0-2.1,1.6-3.8,3.6-3.8c2,0,3.5,1.6,3.5,3.8
	C137.8,66.7,136.2,68.4,134.3,68.4z"/>
<path class="st1" d="M140.6,40.9c0.4-1.2-0.7-1.5-1.5-1.8c-1-0.4-2.2-0.6-2.7-1.7c-0.6-1.4-0.5-2.7,0.9-3.7c1.2-0.9,3.7-0.8,4.5,0.1
	c0.3,0.3,0.3,0.6,0.1,0.9c-0.3,0.3-0.6,0.7-1,0.3c-0.5-0.3-1-0.6-1.5-0.5c-0.7,0.1-1.4,0.3-1.6,1.1c-0.2,0.9,0.3,1.3,1,1.6
	c0.4,0.2,0.9,0.3,1.4,0.5c1.5,0.5,2.6,1.4,2.3,3.2c-0.2,1.6-1.6,2.6-3.7,2.6c-0.2,0-0.5,0-0.8-0.1c-0.8-0.3-2.1-0.4-1.8-1.5
	c0.4-1.3,1.3-0.2,2,0C139.1,42.2,140.2,42.1,140.6,40.9z"/>
<path class="st1" d="M144.4,25.7c-1.2-2.7-2.3-5.5-3.6-8.2c-0.6-1.2-1.4-0.9-1.9,0.2c-1.1,2.5-2.2,5-3.4,7.6c-0.2,0.4-0.7,1,0.1,1.3
	c0.6,0.2,1-0.1,1.3-0.7c0.3-0.6,0.3-1.7,1.3-1.6c1.7,0.2,3.9-1,4.6,1.8c0.1,0.6,0.7,0.6,1.2,0.6c0.3,0,0.4-0.3,0.4-0.6
	C144.4,26,144.4,25.9,144.4,25.7z M138.2,22.9c0.5-1.2,1-2.4,1.5-3.7c0.9,1.1,1.1,2.3,1.7,3.6C140.4,23.3,139.4,23.1,138.2,22.9z"/>
<path class="st1" d="M136.2,84.6c-0.1,0-0.2,0-0.3,0c0,0,0,0,0,0c-1.2-0.1-2.4,0.2-3.6-0.2c-0.8-2.5-0.6-2.7,1.3-2.9
	c1-0.1,2.8,0.7,2.8-0.6c0-1.3-1.8-0.5-2.8-0.6c-1-0.1-1.7-0.1-1.7-1.4c0-1.5,0.7-1.6,1.8-1.5c0.8,0.1,1.5,0,2.3,0
	c0.4,0,0.9,0,0.9-0.6c0-0.5-0.4-0.7-0.9-0.7c-0.4,0-0.8,0-1.3,0c-4.2,0-4.3,0-4.2,4.2c0,1.8-0.7,4.1,0.3,5.2
	c1.1,1.2,3.4,0.3,5.2,0.4c0.3,0,0.6,0,0.8,0.1C137.5,85,137.1,84.7,136.2,84.6z M146.8,84.5c-1-2.4-2-4.7-3-7
	c-0.3-0.6-0.4-1.4-1.3-1.4c-0.9,0-1,0.8-1.3,1.4c-1.2,2.5-2.1,5.3-3.5,7.7c-0.2,0.3-0.2,0.6,0.1,0.8c1,0.1,1.7-0.3,2-1.4
	c0.1-0.5,0.4-1.2,1.1-1.1c1.6,0.2,3.9-1.1,4.6,1.7c0.2,0.6,0.8,0.8,1.4,0.6C147.7,85.5,147,84.9,146.8,84.5z M141.2,82
	c-0.4-1.2,0.6-2.4,1.4-3.8c0.6,1.4,1,2.6,1.5,3.8C143,82.3,141.4,82.6,141.2,82z"/>
<path class="st1" d="M148,69.1c-0.7,0.5-1.5,0.6-2.4,0.6c-2.1,0-3.9-1.2-4.7-3.2c-0.9-2.1-0.4-4.4,1.3-5.9c1.6-1.5,3.5-1.7,5.4-0.9
	c0.6,0.2,1.5,0.5,1.1,1.4c-0.4,0.9-1,0.5-1.7,0.1c-1.6-0.9-3.2-0.5-4.2,1c-1.1,1.5-1.1,3.3,0.1,4.8c1.1,1.4,2.6,1.8,4.2,0.8
	c0.6-0.4,1.2-1,1.7-0.2C149.5,68.5,148.5,68.8,148,69.1z"/>
<path class="st1" d="M148.1,41c0.5-1.3-0.7-1.6-1.5-2c-0.5-0.2-0.9-0.3-1.4-0.5c-1.2-0.5-1.8-1.5-1.6-2.8c0.1-1.3,0.9-2.1,2.2-2.4
	c1.3-0.4,2.5-0.2,3.6,0.6c0.3,0.2,0.3,0.4,0.1,0.7c-0.3,0.3-0.5,0.7-1,0.6c-0.5-0.1-0.9-0.5-1.3-0.6c-0.8-0.1-1.6,0.1-1.9,0.9
	c-0.4,0.9,0.2,1.4,1,1.8c0.4,0.2,0.8,0.3,1.2,0.4c1.6,0.5,2.7,1.4,2.4,3.3c-0.3,1.6-1.7,2.6-3.8,2.5c-0.2,0-0.6,0-1-0.2
	c-0.7-0.3-1.9-0.4-1.5-1.5c0.4-1.1,1.2-0.3,1.8,0C146.5,42.1,147.6,42.3,148.1,41z"/>
<path class="st1" d="M152.3,60.6c0,1.4,0,2.8,0,4.2c0,1.2,0,2.5,0,3.7c0,0.5-0.1,1-0.8,1c-0.7,0-0.7-0.5-0.7-1c0-2.6,0-5.3,0-7.9
	c0-0.5,0.1-1,0.8-0.9C152.2,59.6,152.3,60.1,152.3,60.6z"/>
<path class="st1" d="M145.8,18.3c0-0.5-0.1-1.2,0.6-1.4c0.7-0.2,1.3-0.1,1.8,0.6c1.4,2.1,2.9,4.2,4.3,6.3c0.1,0,0.3-0.1,0.4-0.1
	c0-1.8,0-3.6,0-5.4c0-0.6-0.3-1.6,0.8-1.5c1.1,0.1,0.7,1,0.7,1.6c0,2.2,0,4.4,0,6.7c0,0.5,0.4,1.3-0.6,1.5c-0.7,0.1-1.3-0.1-1.8-0.8
	c-1.4-2.1-2.9-4.2-4.7-6.9c0,2.5,0,4.5,0,6.4c0,0.5,0.2,1.2-0.7,1.3c-1,0-0.9-0.7-0.9-1.3C145.8,23.1,145.8,20.7,145.8,18.3z"/>
<path class="st1" d="M156.1,79.8L156.1,79.8c-0.1,1,0,2-0.1,2.9c-0.2,2.1-1.8,3.5-3.7,3.5c-1.9,0-3.6-1.4-3.8-3.4
	c-0.2-1.9-0.1-3.9-0.1-5.8c0-0.5,0.2-1,0.8-0.9c0.7,0,0.8,0.4,0.8,1c0,1.7,0,3.3,0,5c0,1.5,0.6,2.7,2.2,2.7c1.7,0,2.4-1.1,2.4-2.8
	c0-1.6,0-3.2,0-4.8c0-0.6,0-1.2,0.8-1.1c0.7,0.1,0.7,0.5,0.7,1C156.1,78,156.1,78.9,156.1,79.8z"/>
<path class="st1" d="M156.3,33.1c-2.9,0-5.2,2.1-5.2,5.1c-0.1,3.1,2.1,5.3,5.1,5.3c3,0,5.1-2.1,5.1-5.1
	C161.4,35.3,159.2,33.1,156.3,33.1z M156.1,42c-2-0.1-3.5-1.8-3.5-3.9c0.1-2.1,1.8-3.8,3.7-3.7c2,0.1,3.5,1.8,3.4,3.9
	C159.7,40.5,158.1,42.1,156.1,42z"/>
<path class="st1" d="M162.9,68.8c0-0.1-0.1-0.3-0.1-0.4c-1.2-2.7-2.2-5.5-3.6-8.2c-0.6-1.2-1.4-0.8-1.9,0.3
	c-1.1,2.5-2.2,4.9-3.2,7.4c-0.2,0.4-0.9,1,0,1.4c0.6,0.3,1.2,0,1.4-0.8c0.3-1.3,1.1-1.7,2.4-1.7c1.5,0.1,3.1-0.2,3.5,1.9
	c0.1,0.6,0.7,0.6,1.2,0.5C162.8,69.3,162.9,69.1,162.9,68.8z M157.6,65.9c-0.8-0.1-1.2-0.2-0.7-1.1c0.4-0.9,0.8-1.9,1.4-3.3
	c0.4,1.1,0.7,1.7,0.9,2.3C160,65.8,159.8,66.1,157.6,65.9z"/>
<path class="st1" d="M165.1,26.1c-1.3-2.9-2.4-5.9-3.8-8.7c-0.6-1.1-1.5-0.3-1.9,0.7c-1.1,2.4-2.1,4.8-3.2,7.2
	c-0.2,0.4-0.8,1-0.1,1.4c0.7,0.4,1.3,0,1.6-0.8c0.3-0.7,0.4-1.6,1.4-1.5c1.6,0.2,3.7-0.8,4.4,1.8c0.2,0.7,0.8,0.6,1.4,0.5
	C165.1,26.6,165.2,26.4,165.1,26.1z M159.9,23.1c-0.9-0.1-1.1-0.3-0.8-1.1c0.4-0.9,0.7-1.8,1.3-3.1c0.5,1.1,0.7,1.7,1,2.3
	C162.1,23,161.9,23.2,159.9,23.1z"/>
<path class="st1" d="M166.5,62.8c0.1,1.8,0,3.6,0,5.4c0,0.5,0.1,1.2-0.7,1.2c-0.8,0-0.7-0.7-0.7-1.2c0-1.7-0.1-3.5,0-5.2
	c0.1-1.5-0.3-2.2-1.9-2c-0.5,0.1-1.2,0.2-1.2-0.7c0-0.9,0.7-0.7,1.2-0.7c1.8,0,3.6,0,5.4,0c0.5,0,1,0,1.1,0.7c0,1-0.8,0.8-1.4,0.8
	C166.8,60.9,166.4,61.4,166.5,62.8z"/>
<path class="st1" d="M169.8,84.2c0.4,0.6-0.2,0.9-0.6,1.1c-1.6,1.1-3.3,1.2-5.1,0.4c-1.7-0.9-2.7-2.5-2.8-4.5c-0.1-4,4-6.6,7.4-4.7
	c0.5,0.3,1.4,0.4,0.8,1.3c-0.4,0.6-0.9,0.4-1.4,0.1c-1.8-1.1-3.3-0.6-4.5,1c-1.1,1.4-1,3.6,0.2,4.8c1.4,1.4,3,1.8,4.6,0.4
	C169,83.6,169.5,83.6,169.8,84.2z"/>
<path class="st1" d="M165,35.8c-1.2,1.5-1.3,3.2-0.2,4.8c1,1.4,2.4,1.7,4.1,1.1c0.3-0.1,0.6-0.3,0.9-0.6c0.5-0.5,0.9-0.1,1.2,0.2
	c0.4,0.5,0,0.8-0.3,1c-0.9,0.8-1.9,1.1-3.1,1c-2.1,0-4-1.2-4.7-3.1c-0.8-2-0.3-4.4,1.1-5.8c1.4-1.4,3.7-1.9,5.6-1
	c0.6,0.3,1.6,0.4,1.2,1.3c-0.4,1-1,0.6-1.8,0.1C167.5,34,166,34.4,165,35.8z"/>
<path class="st1" d="M171.6,59.6c0.7,0,0.8,0.4,0.8,1v4c0,1.3,0,2.6,0,4c0,0.5-0.2,1-0.8,1c-0.7,0-0.8-0.5-0.8-1c0-2.6,0-5.3,0-7.9
	C170.8,60,171,59.6,171.6,59.6z"/>
<path class="st1" d="M174.1,42.1c0,0.4,0.2,1.1-0.6,1.1c-0.8,0-0.8-0.6-0.8-1.1v-7.7c0-0.5,0.1-1,0.7-1c0.7,0,0.6,0.6,0.6,1
	c0,1.3,0,2.6,0,3.9C174.1,39.6,174.2,40.9,174.1,42.1z"/>
<path class="st1" d="M173.1,18c-1.9-1.6-4.3-1.6-6.3-0.9c-1.5,0.5-0.3,2.6-0.6,3.9c-0.1,0.3,0,0.6,0,0.8v1.2c0,4,0.3,4.3,4.3,3.6
	c2.1-0.3,3.6-1.5,4.1-3.6C175.2,21.1,174.7,19.3,173.1,18z M171.8,24.7c-0.2,0.2-0.5,0.3-0.7,0.4c-2.9,1.1-3.4,0.7-3.4-3.1
	c0-0.2,0-0.4,0-0.6c0.3-1-0.8-2.5,0.8-3c1.8-0.6,3.9,0.5,4.5,2.1C173.6,22.1,173.2,23.5,171.8,24.7z"/>
<path class="st1" d="M176.6,25.6c0-2.6,0-5.1,0-7.7c0-0.5,0.1-1,0.7-1c0.7,0,0.7,0.6,0.7,1.1c0,1.2,0,2.5,0,3.7s0,2.5,0,3.7
	c0,0.5,0.1,1.2-0.7,1.2C176.5,26.7,176.6,26.1,176.6,25.6z"/>
<path class="st1" d="M179.9,85.1c-1.2-2.8-2.3-5.7-3.7-8.5c-0.6-1.2-1.5-0.5-1.9,0.5c-1.1,2.5-2.2,4.9-3.3,7.4
	c-0.2,0.5-0.8,1.1,0.1,1.4c0.7,0.3,1.1-0.1,1.4-0.8c0.2-0.6,0.3-1.6,1.2-1.5c1.7,0.2,3.9-1.1,4.6,1.8c0.1,0.6,0.7,0.7,1.2,0.6
	C179.9,85.9,180,85.5,179.9,85.1z M173.7,82.2c0.4-1.4,0.8-2.5,1.7-3.9c0.6,1.5,1,2.6,1.5,3.9H173.7z"/>
<path class="st1" d="M179.1,59.3c-2.9,0.1-5,2.4-5,5.3c0.1,2.9,2.3,5.1,5.2,5.1c2.9,0,5.1-2.3,5.1-5.2
	C184.4,61.6,182,59.3,179.1,59.3z M179.2,68.4c-2,0-3.5-1.7-3.5-3.8c0-2.2,1.6-3.8,3.6-3.8c2,0,3.6,1.8,3.6,3.8
	C182.8,66.6,181.1,68.4,179.2,68.4z"/>
<path class="st1" d="M184.9,42.5c0-0.1-0.1-0.3-0.1-0.4c-1.1-2.6-2.2-5.1-3.3-7.6c-0.2-0.5-0.3-1.1-1.1-1.1c-0.8,0-1,0.6-1.3,1.2
	c-1,2.3-2.1,4.7-3.1,7c-0.2,0.5-0.9,1.2-0.1,1.6c0.9,0.5,1.3-0.3,1.6-1.1c0.2-0.5,0.3-1.3,1-1.2c1.7,0.2,4.1-1.2,4.8,1.8
	c0.1,0.6,0.7,0.7,1.2,0.6C184.8,43.2,184.9,42.9,184.9,42.5z M180,39.6c-1.4,0-1.5-0.5-1-1.5c0.4-0.7,0.6-1.5,1-2.4
	c0.8,0.6,0.8,1.5,1.2,2.1C182,39.1,181.7,39.6,180,39.6z"/>
<path class="st1" d="M188.6,25.8c-1.2-2.7-2.3-5.7-3.8-8.5c-0.5-1-1.4-0.3-1.8,0.6c-1.1,2.5-2.2,5.1-3.3,7.6
	c-0.2,0.4-0.6,0.9,0.1,1.2c0.6,0.2,1.2,0,1.3-0.6c0.3-1.8,1.6-1.7,3-1.7c1.4,0,2.6,0.1,3,1.8c0.1,0.6,0.6,0.7,1.1,0.6
	C188.6,26.7,188.7,26.5,188.6,25.8z M185.3,22.8c-0.2,0.7-1.7,0.2-3,0.3c0.6-1.4,1-2.6,1.6-4.1C184.7,20.4,185.7,21.6,185.3,22.8z"
	/>
<path class="st1" d="M189.9,84.5c0,0.5,0.2,1.2-0.5,1.4c-0.7,0.2-1.3,0-1.8-0.7c-1.4-2.1-2.9-4.2-4.8-6.3c0,1.9,0,3.7,0,5.6
	c0,0.6,0.2,1.4-0.8,1.4c-1,0-0.8-0.8-0.8-1.4c0-2.3,0-4.6,0-6.9c0-0.6-0.3-1.4,0.6-1.6c0.8-0.2,1.4,0.1,1.9,0.8
	c1.3,2.1,2.8,4.1,4.1,6.2c0.2,0,0.3-0.1,0.5-0.1c0-1.9,0-3.7,0-5.6c0-0.5-0.1-1.2,0.7-1.3c1-0.1,0.8,0.7,0.8,1.3
	C189.9,79.8,189.9,82.1,189.9,84.5z"/>
<path class="st1" d="M188.5,37.1c0.1,1.7,0,3.3,0,5c0,0.6,0,1.2-0.8,1.2c-0.9,0-0.7-0.7-0.7-1.2c0-1,0-2.1,0-3.1
	c0-0.6-0.1-1.1,0-1.7c0.2-1.7,0.1-3.1-2.2-2.6c-0.4,0.1-0.8-0.1-0.9-0.6c0-0.5,0.3-0.7,0.8-0.7c2,0,4,0,6,0c0.4,0,0.9,0.1,0.9,0.6
	c0,0.7-0.5,0.8-1,0.7C188.4,34.3,188.4,35.6,188.5,37.1z"/>
<path class="st1" d="M194.4,38.3c0,1.2,0,2.5,0,3.7c0,0.5,0.1,1.2-0.7,1.2c-0.8,0.1-0.8-0.5-0.8-1.1c0-2.6,0-5.1,0-7.6
	c0-0.6,0-1.2,0.8-1.1c0.8,0,0.7,0.7,0.8,1.2C194.4,35.8,194.4,37.1,194.4,38.3z"/>
<path class="st1" d="M187.9,62.2c-0.1,0-0.3,0.1-0.4,0.1c0,1.8,0,3.7,0,5.5c0,0.6,0.5,1.6-0.7,1.5c-0.9,0-0.7-0.9-0.7-1.5
	c0-2.2,0-4.4,0-6.7c0-0.6-0.3-1.3,0.6-1.6c0.8-0.2,1.4,0.1,1.9,0.8c1.1,1.8,2.3,3.5,3.5,5.2c0.3,0.4,0.3,0.9,1.2,1
	c0-1.9,0-3.8,0-5.7c0-0.5-0.2-1.2,0.7-1.2c0.9,0,0.7,0.6,0.8,1.2c0,2.4,0,4.7,0,7.1c0,0.6,0.3,1.3-0.7,1.5c-0.7,0.1-1.3-0.1-1.8-0.8
	C190.8,66.4,189.3,64.3,187.9,62.2z"/>
<path class="st1" d="M190,18.3c0-0.5-0.1-1.2,0.6-1.4c0.7-0.2,1.3,0,1.8,0.7c1.4,2.1,2.8,4.2,4.7,6.9c0-2.5,0-4.4,0-6.3
	c0-0.6-0.2-1.4,0.8-1.4c1,0,0.8,0.7,0.8,1.3c0,2.4,0,4.7,0,7.1c0,0.5,0.2,1.2-0.6,1.4c-0.7,0.1-1.3,0.1-1.8-0.7
	c-1.4-2.2-2.9-4.3-4.3-6.4c-0.1,0-0.3,0-0.4,0.1c0,1.8,0,3.7,0,5.6c0,0.5,0.3,1.4-0.7,1.4c-1,0.1-0.8-0.7-0.8-1.3
	C190,23,190,20.6,190,18.3z"/>
<path class="st1" d="M197,77.1c-0.2-0.5-0.4-1.1-1.1-1c-0.6,0-0.8,0.4-1,0.9c-1.2,2.7-2.3,5.3-3.5,8c-0.1,0.3-0.3,0.7,0.1,0.9
	c0.4,0.2,0.8,0.2,1.1-0.1c0.3-0.3,0.5-0.7,0.6-1.1c0.6-1.8,2.1-0.9,3.2-1.1c1-0.1,2-0.1,2.3,1.2c0.3,1,0.9,1.5,2.1,1
	C199.4,82.8,198.2,79.9,197,77.1z M194.3,82.2c0.1-1.4,0.8-2.4,1.5-4c0.6,1.5,1.1,2.7,1.6,3.8C196.4,82.4,195.4,82.3,194.3,82.2z"/>
<path class="st1" d="M201.3,33.1c-3-0.1-5.3,2.2-5.3,5.3c0,2.9,2.3,5.1,5.2,5.1c3,0,5.1-2.1,5.1-5.1
	C206.3,35.3,204.3,33.1,201.3,33.1z M201.3,42c-2,0.1-3.6-1.5-3.6-3.7c0-2.2,1.5-3.9,3.4-3.9c1.9-0.1,3.6,1.7,3.7,3.7
	C204.9,40.1,203.2,42,201.3,42z"/>
<path class="st1" d="M209.2,63.7c-0.4-3-2.9-4.6-7.2-4c-2.7,0.3-0.5,2.7-1.2,4c-0.1,0.2,0,0.5,0,0.8c0,1.2,0,2.5,0,3.7
	c0,0.9,0.2,1.3,1.2,1.2c1.2-0.1,2.4,0,3.5-0.2C207.9,68.8,209.5,66.4,209.2,63.7z M206.4,67.2c-0.4,0.3-0.8,0.5-1.3,0.6
	c-2.5,0.9-3,0.5-3-2.1v-1.3c0-0.1,0-0.3,0-0.4c0.3-1-0.8-2.6,0.9-2.9c1.7-0.4,3.4-0.1,4.3,1.8C208,64.4,207.9,66,206.4,67.2z"/>
<path class="st1" d="M209.9,79c-0.9-2.4-3.9-3.8-7.3-2.9c-2.1,0.6-0.5,2.6-1,3.9c-0.1,0.2,0,0.5,0,0.8c0,1.3,0,2.6,0,3.9
	c0,0.6,0.1,1.2,0.8,1.2c1.9,0,3.7,0.2,5.5-0.8C210,84,210.8,81.4,209.9,79z M208.7,81.2c-0.1,2.1-1.9,3.5-4.4,3.4
	c-0.9,0-1.2-0.4-1.2-1.2c0-1.5,0.1-3.1,0-4.6c-0.1-1.3,0.6-1.5,1.5-1.4C207.3,77.5,208.8,78.9,208.7,81.2z"/>
<path class="st1" d="M213.4,81.1c0,1.2,0,2.5,0,3.7c0,0.5,0.1,1-0.6,1.1c-0.7,0-0.8-0.4-0.8-1v-7.9c0-0.5,0.1-1,0.8-1
	c0.7,0,0.6,0.6,0.6,1.1C213.4,78.5,213.4,79.8,213.4,81.1z"/>
<path class="st1" d="M208.1,35c0-0.6-0.3-1.3,0.6-1.5c0.8-0.2,1.4,0.1,1.9,0.9c1.3,2.1,2.7,4.1,4.1,6.1c0.1,0,0.3-0.1,0.4-0.1
	c0-1.8,0-3.7,0-5.5c0-0.6-0.2-1.4,0.8-1.4c1,0,0.7,0.9,0.7,1.4c0,2.2,0.1,4.3,0,6.5c0,0.7,0.5,1.6-0.6,2c-1.1,0.3-1.6-0.5-2.1-1.3
	c-1.3-2-2.6-3.9-4.4-5.8c0,1.9,0,3.7,0,5.6c0,0.6,0.3,1.4-0.7,1.5c-1,0-0.8-0.8-0.8-1.4C208,39.5,208,37.2,208.1,35z"/>
<path class="st1" d="M214.5,69.7c-1.9-0.1-3.4-1.4-3.6-3.3c-0.1-1,0-2.1,0-3.1h0v-2.7c0-0.5,0-1,0.7-1c0.7,0,0.8,0.5,0.8,1
	c0,1.5,0,3,0,4.6c0,1.6,0.4,3,2.3,3.2c1.4,0.1,2.4-1.2,2.5-3.2c0-1.5,0-3,0-4.6c0-0.5,0-1,0.7-0.9c0.5,0,0.7,0.4,0.7,0.8
	c0,2.1,0.1,4.2-0.1,6.2C218.1,68.6,216.5,69.8,214.5,69.7z"/>
<path class="st1" d="M222.4,85.3c0,0.4-0.3,0.7-0.6,0.7c-1.7,0-3.5,0-5.2,0c-0.8,0-0.8-0.6-0.8-1.2V81c0-0.1,0-0.3,0-0.4
	c0-4.8,0.6-5.3,5.4-4.5c0.5,0.1,1,0.2,0.9,0.8c-0.1,0.6-0.6,0.5-1,0.5c-0.8,0-1.5,0.1-2.3,0c-1.1-0.1-1.6,0.2-1.7,1.4
	c0,1.3,0.6,1.4,1.6,1.5c1,0.1,2.8-0.7,2.8,0.6c0,1.3-1.8,0.6-2.8,0.6c-1.2,0-1.7,0.4-1.7,1.7c0,1.3,0.6,1.5,1.6,1.4
	c1-0.1,1.9,0,2.9,0C222.2,84.6,222.4,84.8,222.4,85.3z"/>
<path class="st1" d="M232.7,77.6c0,2.3,0,4.6,0,6.9c0,0.6,0.3,1.3-0.7,1.5c-0.7,0.1-1.2-0.2-1.6-0.8c-1.1-1.7-2.2-3.3-3.4-5
	c-0.3-0.4-0.5-1-1.4-1.2c0,1.9,0,3.8,0,5.6c0,0.6,0.2,1.4-0.8,1.4c-1,0-0.7-0.8-0.7-1.4c0-2.3,0-4.6,0-6.9c0-0.6-0.3-1.4,0.6-1.6
	c0.8-0.2,1.4,0.1,1.9,0.8c1.4,2.1,2.8,4.1,4.2,6.2c0.1,0,0.3-0.1,0.4-0.1c0-1.8,0-3.6,0-5.4c0-0.6-0.4-1.6,0.8-1.6
	C233,76.1,232.7,77,232.7,77.6z"/>
<path class="st1" d="M236,50.9H92.4v-0.4H236C236,50.6,236,50.7,236,50.9z"/>
<path class="st2" d="M45.1,88c-2.1,0.4-4.2,0.8-6.4,0.5C38,87.7,38,86.7,38,85.7c0.2-7.9,0.7-15.8,1.1-23.7
	c0.2-4.1,0.6-8.2,0.5-12.3c-0.1-3,0.4-6,0.5-8.9c0.2-2.9,1.9-4.7,4.8-5.3c2.9-0.6,5.8-0.8,8.7-1.2c1-0.1,2.2-0.5,2.9,0.4
	c0,0,0,0,0,0c0,0,0,0,0,0.1c0.7,1.1-0.1,2.1-0.6,3c-3.3,6.5-6.5,13-9.8,19.6c-1.5,2.9-1.2,3.5,1.7,4.9c6.5,3.1,13,3.1,19.4-0.2
	c2.9-1.5,3-2,1.5-4.8c-2.4-4.4-4.5-8.9-6.8-13.4c-1.3-2.4-2.3-4.9-3.5-7.3c-0.9-2-2.2-3-4.5-2.8c-3.5,0.3-7.1-0.5-10.6-0.5
	c-2.7,0-3.7-1.3-3.5-3.8c0.4-4.7,0.3-9.4,0.7-14.1c0.1-1-0.1-2.1,0.9-2.8c16.3,0.8,31.3,14.4,34.1,31.1C79.1,64.6,65.9,83.8,45.1,88
	z"/>
<path class="st1" d="M37.6,88.5C17.5,88.5,1.2,72.2,0.1,53c-1.3-21.9,15.1-38.7,34.6-40.4c1.5,1.8,0.9,4,1,6
	c0.3,3.6,0.5,7.2,0.6,10.8c0.1,2.9-0.9,4-3.8,4c-3.5,0-6.9,0.7-10.4,0.5c-2-0.1-3.5,0.8-4.3,2.6c-3.3,7.1-7.1,14-10.5,21.1
	c-1.4,2.9-1.4,3.2,1.5,4.6c6.7,3.4,13.5,3.4,20.2-0.2c2.2-1.2,2.3-1.5,1.3-3.7C27.4,52,24,46,21.1,39.8c-0.4-0.8-0.8-1.6-1.1-2.5
	c-0.9-2.2-0.4-3.1,2.1-3c2.3,0.1,4.5,0.5,6.8,0.8c5.4,0.7,7.2,2.7,7.5,8.1c0.1,3.1,0.2,6.1,0.3,9.2c0.2,3.9,0.5,7.8,0.6,11.6
	c0.2,7.4,0.8,14.8,0.8,22.3C38,87.1,38.2,87.9,37.6,88.5z"/>
<path class="st3" d="M69.9,61.7c-7.3,5-17.2,5-24.6,0.2c-1.4-0.9-1.6-1.6-0.9-3.1c3.7-7.1,7.3-14.2,10.9-21.4
	c0.4-0.7,0.7-1.4,1.2-2.6c0,0,0-0.1,0.1-0.1c0,0-0.1,0-0.1,0c-4.4,0.6-8.6,1-12.6,1.9c-2.3,0.5-3,2.7-3,4.9
	c-0.3,5.8-0.5,11.5-0.8,17.3c-0.5,9.9-0.9,19.7-1.4,29.6c-0.4,0-0.8,0-1.1,0.1C37.3,83.3,37,78,36.7,72.7
	c-0.5-10.1-0.9-20.2-1.4-30.4c-0.2-4.6-1.2-5.6-5.8-6.3c-2.8-0.4-5.6-0.7-8.5-1c-0.4,0-0.8,0.1-1.3,0.1c4,7.9,7.9,15.8,11.9,23.5
	c0.8,1.6,0.7,2.3-0.8,3.3c-7.5,4.8-17.2,4.8-24.6-0.3C5,60.9,4.9,60.3,5.5,59c4.1-8,8.2-15.9,12.1-24c0.7-1.4,1.6-1.9,3-1.9
	c4.3-0.2,8.6-0.5,12.9-0.6c1.6-0.1,2-0.7,2-2.2c-0.3-5.9-0.6-11.8-0.8-17.7c2.2-0.2,4.5-0.3,6.7,0.1c-0.3,5.8-0.4,11.5-0.8,17.3
	c-0.1,2.1,0.6,2.6,2.5,2.6c4.2,0.1,8.3,0.5,12.5,0.6c1.4,0.1,2.2,0.6,2.9,1.9c4,8,8,16,12.1,24C71.2,60.2,71.1,60.9,69.9,61.7z"/>
<path class="st1" d="M236,50.9H92.4v-0.4H236C236,50.6,236,50.7,236,50.9z"/>
<path class="st1" d="M232.7,84.5c0,0.6,0.3,1.3-0.7,1.5c-0.7,0.1-1.2-0.2-1.6-0.8c-1.1-1.7-2.2-3.3-3.4-5c-0.3-0.4-0.5-1-1.4-1.2
	c0,1.9,0,3.8,0,5.6c0,0.6,0.2,1.4-0.8,1.4c-1,0-0.7-0.8-0.7-1.4c0-2.3,0-4.6,0-6.9c0-0.6-0.3-1.4,0.6-1.6c0.8-0.2,1.4,0.1,1.9,0.8
	c1.4,2.1,2.8,4.1,4.2,6.2c0.1,0,0.3-0.1,0.4-0.1c0-1.8,0-3.6,0-5.4c0-0.6-0.4-1.6,0.8-1.6c0.9,0,0.7,0.9,0.7,1.5
	C232.7,79.9,232.7,82.2,232.7,84.5z"/>
<path class="st1" d="M198.1,26.7c-0.7,0.1-1.3,0.1-1.8-0.7c-1.4-2.2-2.9-4.3-4.3-6.4c-0.1,0-0.3,0-0.4,0.1c0,1.8,0,3.7,0,5.6
	c0,0.5,0.3,1.4-0.7,1.4c-1,0.1-0.8-0.7-0.8-1.3c0-2.4,0-4.7,0-7.1c0-0.5-0.1-1.2,0.6-1.4c0.7-0.2,1.3,0,1.8,0.7
	c1.4,2.1,2.8,4.2,4.7,6.9c0-2.5,0-4.4,0-6.3c0-0.6-0.2-1.4,0.8-1.4c1,0,0.8,0.7,0.8,1.3c0,2.4,0,4.7,0,7.1
	C198.7,25.9,198.8,26.6,198.1,26.7z"/>
<path class="st1" d="M189.3,85.9c-0.7,0.2-1.3,0-1.8-0.7c-1.4-2.1-2.9-4.2-4.8-6.3c0,1.9,0,3.7,0,5.6c0,0.6,0.2,1.4-0.8,1.4
	c-1,0-0.8-0.8-0.8-1.4c0-2.3,0-4.6,0-6.9c0-0.6-0.3-1.4,0.6-1.6c0.8-0.2,1.4,0.1,1.9,0.8c1.3,2.1,2.8,4.1,4.1,6.2
	c0.2,0,0.3-0.1,0.5-0.1c0-1.9,0-3.7,0-5.6c0-0.5-0.1-1.2,0.7-1.3c1-0.1,0.8,0.7,0.8,1.3c0,2.4,0,4.7,0,7.1
	C189.9,85,190.1,85.7,189.3,85.9z"/>
<path class="st1" d="M154.4,25.2c0,0.5,0.4,1.3-0.6,1.5c-0.7,0.1-1.3-0.1-1.8-0.8c-1.4-2.1-2.9-4.2-4.7-6.9c0,2.5,0,4.5,0,6.4
	c0,0.5,0.2,1.2-0.7,1.3c-1,0-0.9-0.7-0.9-1.3c0-2.4,0-4.7,0-7.1c0-0.5-0.1-1.2,0.6-1.4c0.7-0.2,1.3-0.1,1.8,0.6
	c1.4,2.1,2.9,4.2,4.3,6.3c0.1,0,0.3-0.1,0.4-0.1c0-1.8,0-3.6,0-5.4c0-0.6-0.3-1.6,0.8-1.5c1.1,0.1,0.7,1,0.7,1.6
	C154.4,20.8,154.4,23,154.4,25.2z"/>
<path class="st1" d="M216,43.2c-1.1,0.3-1.6-0.5-2.1-1.3c-1.3-2-2.6-3.9-4.4-5.8c0,1.9,0,3.7,0,5.6c0,0.6,0.3,1.4-0.7,1.5
	c-1,0-0.8-0.8-0.8-1.4c0-2.3,0-4.6,0-6.9c0-0.6-0.3-1.3,0.6-1.5c0.8-0.2,1.4,0.1,1.9,0.9c1.3,2.1,2.7,4.1,4.1,6.1
	c0.1,0,0.3-0.1,0.4-0.1c0-1.8,0-3.7,0-5.5c0-0.6-0.2-1.4,0.8-1.4c1,0,0.7,0.9,0.7,1.4c0,2.2,0.1,4.3,0,6.5
	C216.6,41.9,217.1,42.9,216,43.2z"/>
<path class="st1" d="M201.3,33.1c-3-0.1-5.3,2.2-5.3,5.3c0,2.9,2.3,5.1,5.2,5.1c3,0,5.1-2.1,5.1-5.1
	C206.3,35.3,204.3,33.1,201.3,33.1z M201.3,42c-2,0.1-3.6-1.5-3.6-3.7c0-2.2,1.5-3.9,3.4-3.9c1.9-0.1,3.6,1.7,3.7,3.7
	C204.9,40.1,203.2,42,201.3,42z"/>
<path class="st1" d="M209.9,79c-0.9-2.4-3.9-3.8-7.3-2.9c-2.1,0.6-0.5,2.6-1,3.9c-0.1,0.2,0,0.5,0,0.8c0,1.3,0,2.6,0,3.9
	c0,0.6,0.1,1.2,0.8,1.2c1.9,0,3.7,0.2,5.5-0.8C210,84,210.8,81.4,209.9,79z M208.7,81.2c-0.1,2.1-1.9,3.5-4.4,3.4
	c-0.9,0-1.2-0.4-1.2-1.2c0-1.5,0.1-3.1,0-4.6c-0.1-1.3,0.6-1.5,1.5-1.4C207.3,77.5,208.8,78.9,208.7,81.2z"/>
<path class="st1" d="M173.1,18c-1.9-1.6-4.3-1.6-6.3-0.9c-1.5,0.5-0.3,2.6-0.6,3.9c-0.1,0.3,0,0.6,0,0.8v1.2c0,4,0.3,4.3,4.3,3.6
	c2.1-0.3,3.6-1.5,4.1-3.6C175.2,21.1,174.7,19.3,173.1,18z M171.8,24.7c-0.2,0.2-0.5,0.3-0.7,0.4c-2.9,1.1-3.4,0.7-3.4-3.1
	c0-0.2,0-0.4,0-0.6c0.3-1-0.8-2.5,0.8-3c1.8-0.6,3.9,0.5,4.5,2.1C173.6,22.1,173.2,23.5,171.8,24.7z"/>
<path class="st1" d="M179.1,59.3c-2.9,0.1-5,2.4-5,5.3c0.1,2.9,2.3,5.1,5.2,5.1c2.9,0,5.1-2.3,5.1-5.2
	C184.4,61.6,182,59.3,179.1,59.3z M179.2,68.4c-2,0-3.5-1.7-3.5-3.8c0-2.2,1.6-3.8,3.6-3.8c2,0,3.6,1.8,3.6,3.8
	C182.8,66.6,181.1,68.4,179.2,68.4z"/>
<path class="st1" d="M156.3,33.1c-2.9,0-5.2,2.1-5.2,5.1c-0.1,3.1,2.1,5.3,5.1,5.3c3,0,5.1-2.1,5.1-5.1
	C161.4,35.3,159.2,33.1,156.3,33.1z M156.1,42c-2-0.1-3.5-1.8-3.5-3.9c0.1-2.1,1.8-3.8,3.7-3.7c2,0.1,3.5,1.8,3.4,3.9
	C159.7,40.5,158.1,42.1,156.1,42z"/>
<path class="st1" d="M134.4,59.3c-3-0.1-5.3,2.2-5.3,5.2c0,3,2.2,5.2,5.1,5.2c2.9,0,5.1-2.1,5.2-5.1
	C139.4,61.6,137.4,59.4,134.4,59.3z M134.3,68.4c-1.9,0-3.6-1.8-3.6-3.9c0-2.1,1.6-3.8,3.6-3.8c2,0,3.5,1.6,3.5,3.8
	C137.8,66.7,136.2,68.4,134.3,68.4z"/>
<path class="st1" d="M102.5,38.6c-0.6-0.6-0.6-0.8-0.1-1.5c1-1.4,0.3-3-1.2-3.5c-0.7-0.2-1.5-0.2-2.2-0.3c-2.2-0.4-2.9,0.5-2.6,2.6
	c0.2,1.4,0,2.8,0,4.1c0,3.6,0,3.6,3.6,3.2c0.4,0,0.8-0.1,1.2-0.2C103.2,42.4,103.9,40.3,102.5,38.6z M97.7,36c0-1,0.3-1.6,1.3-1.4
	c1.1,0,2.2,0,2.1,1.4c0,1.3-1,1.2-1.9,1.3C98.2,37.4,97.6,37.2,97.7,36z M99,41.8c-0.9,0.2-1.4-0.2-1.3-1.4c0-1.1,0.1-1.9,1.5-1.7
	c1.1,0.1,2.4,0,2.3,1.7C101.5,41.9,100.3,41.8,99,41.8z"/>
<path class="st1" d="M128.6,84.8c-0.9-1.5-2.9-3-0.1-4.7c0.3-0.2,0.5-0.9,0.4-1.3c-0.1-1.1-0.4-2.1-1.6-2.4c-1.6-0.5-3.3-0.5-4.9,0
	c-0.2,0.1-0.2,0.8-0.2,1.2c0,2.4,0,4.7,0,7.1c0,0.6-0.1,1.4,0.8,1.3c0.8-0.1,0.5-0.8,0.6-1.3c0.2-0.9-0.6-2.4,0.6-2.8
	c1.4-0.4,1.4,1.4,2.1,2.1c0.3,0.3,0.5,0.7,0.6,1.1c0.5,0.9,1.1,1.1,2.2,0.6C128.8,85.3,128.7,85,128.6,84.8z M124.9,80.3
	c-1.1,0.2-1.4-0.4-1.4-1.5c0-1.2,0.5-1.5,1.6-1.5c1,0.1,2,0.2,2.1,1.5C127.2,80.2,126.1,80.3,124.9,80.3z"/>
<path class="st1" d="M118.2,81.6c1.5-0.7,2.6-1.8,2.1-3.6c-0.5-1.9-2.1-2-3.7-2c-0.5,0-1,0-1.5,0c-1.1-0.1-1.4,0.4-1.4,1.5
	c0.1,2.3,0,4.6,0,6.9c0,0.6-0.2,1.6,0.9,1.5c1-0.1,0.5-0.9,0.6-1.5c0.2-0.9-0.6-2.3,0.5-2.6c1.5-0.5,1.5,1.3,2.1,2.1
	c0.3,0.4,0.5,0.8,0.7,1.2c0.4,0.9,1.1,0.9,2.2,0.6C119.8,84.3,119,83,118.2,81.6z M116.5,80.3c-1.3,0.3-1.3-0.6-1.3-1.6
	c0-1.1,0.3-1.5,1.4-1.4c1.1,0.1,2.3,0.1,2.3,1.5C118.8,80.2,117.7,80.3,116.5,80.3z"/>
<path class="st1" d="M120.9,41.9c-0.2-0.5-0.6-0.9-0.9-1.4c-0.6-0.9-1.1-1.5,0.3-2.4c1.6-1,1.3-3.5-0.3-4.3
	c-1.6-0.7-3.4-0.7-4.9-0.2c-1.2,0.4-0.3,2.1-0.5,3.2c-0.1,0.5,0,1.1,0,1.7c0,1.2,0,2.5,0,3.7c0,0.5,0,1.1,0.7,1.1
	c0.8,0,0.8-0.6,0.8-1.1c0-0.7,0-1.4,0-2.1c0-0.4-0.2-1,0.6-1.1c0.6-0.1,0.9,0.2,1.2,0.6c0.6,1.1,1.2,2.2,1.9,3.2
	c0.3,0.6,1,0.7,1.5,0.4C121.9,42.8,121.1,42.3,120.9,41.9z M117.3,37.6c-1.2,0.1-1.3-0.5-1.3-1.5c0-1.1,0.3-1.7,1.4-1.5
	c1.2,0,2.3,0.2,2.3,1.6C119.6,37.6,118.4,37.5,117.3,37.6z"/>
<path class="st1" d="M101.7,81.5c-0.5-0.6-0.8-0.8-0.3-1.7c1.1-1.8,0.2-3.4-2-3.7c-3.7-0.6-4-0.3-4,3.3v1.5c0,1.3,0,2.6,0,3.9
	c0,0.5,0,1.1,0.7,1.1c1.6,0,3.2,0.3,4.7-0.4C102.5,84.7,102.9,82.9,101.7,81.5z M96.8,78.4c-0.1-1.5,1.1-1.1,1.9-1.1
	c0.9,0,1.7,0.4,1.5,1.5c-0.2,1.4-1.4,1.3-2.1,1.3C96.5,80.2,96.9,79.2,96.8,78.4z M98.2,84.7c-1.3,0.2-1.5-0.6-1.4-1.7
	c-0.2-1.1,0.1-1.8,1.5-1.7c1.2,0.1,2.4,0.1,2.3,1.7C100.6,84.6,99.3,84.5,98.2,84.7z"/>
<path class="st1" d="M194,69.4c-0.7,0.1-1.3-0.1-1.8-0.8c-1.4-2.2-2.9-4.3-4.4-6.5c-0.1,0-0.3,0.1-0.4,0.1c0,1.8,0,3.7,0,5.5
	c0,0.6,0.5,1.6-0.7,1.5c-0.9,0-0.7-0.9-0.7-1.5c0-2.2,0-4.4,0-6.7c0-0.6-0.3-1.3,0.6-1.6c0.8-0.2,1.4,0.1,1.9,0.8
	c1.1,1.8,2.3,3.5,3.5,5.2c0.3,0.4,0.3,0.9,1.2,1c0-1.9,0-3.8,0-5.7c0-0.5-0.2-1.2,0.7-1.2c0.9,0,0.7,0.6,0.8,1.2c0,2.4,0,4.7,0,7.1
	C194.6,68.5,194.9,69.3,194,69.4z"/>
<path class="st1" d="M121,26.1c0,0.5-0.4,0.7-0.9,0.7c-1.6,0-3.2,0-4.8,0c-0.9,0-1.1-0.4-1-1.2c0-1.3,0-2.5,0-3.8v-0.4
	c0-5,0.3-5.2,5.4-4.6c0.5,0.1,1,0,1,0.7c0,0.7-0.6,0.6-1.1,0.6c-0.7,0-1.4,0-2.1,0c-1.1-0.1-1.6,0.1-1.7,1.4c0,1.4,0.7,1.3,1.7,1.4
	c0.9,0.1,2.7-0.9,2.7,0.7c0,1.2-1.7,0.5-2.7,0.6c-1,0.1-1.7,0.1-1.7,1.4c0,1.2,0.3,1.8,1.6,1.7c0.9-0.1,1.8,0,2.7,0
	C120.6,25.5,121.1,25.5,121,26.1z"/>
<path class="st1" d="M209.2,63.7c-0.4-3-2.9-4.6-7.2-4c-2.7,0.3-0.5,2.7-1.2,4c-0.1,0.2,0,0.5,0,0.8c0,1.2,0,2.5,0,3.7
	c0,0.9,0.2,1.3,1.2,1.2c1.2-0.1,2.4,0,3.5-0.2C207.9,68.8,209.5,66.4,209.2,63.7z M206.4,67.2c-0.4,0.3-0.8,0.5-1.3,0.6
	c-2.5,0.9-3,0.5-3-2.1v-1.3c0-0.1,0-0.3,0-0.4c0.3-1-0.8-2.6,0.9-2.9c1.7-0.4,3.4-0.1,4.3,1.8C208,64.4,207.9,66,206.4,67.2z"/>
<path class="st1" d="M222.4,85.3c0,0.4-0.3,0.7-0.6,0.7c-1.7,0-3.5,0-5.2,0c-0.8,0-0.8-0.6-0.8-1.2V81c0-0.1,0-0.3,0-0.4
	c0-4.8,0.6-5.3,5.4-4.5c0.5,0.1,1,0.2,0.9,0.8c-0.1,0.6-0.6,0.5-1,0.5c-0.8,0-1.5,0.1-2.3,0c-1.1-0.1-1.6,0.2-1.7,1.4
	c0,1.3,0.6,1.4,1.6,1.5c1,0.1,2.8-0.7,2.8,0.6c0,1.3-1.8,0.6-2.8,0.6c-1.2,0-1.7,0.4-1.7,1.7c0,1.3,0.6,1.5,1.6,1.4
	c1-0.1,1.9,0,2.9,0C222.2,84.6,222.4,84.8,222.4,85.3z"/>
<path class="st1" d="M184.9,42.5c0-0.1-0.1-0.3-0.1-0.4c-1.1-2.6-2.2-5.1-3.3-7.6c-0.2-0.5-0.3-1.1-1.1-1.1c-0.8,0-1,0.6-1.3,1.2
	c-1,2.3-2.1,4.7-3.1,7c-0.2,0.5-0.9,1.2-0.1,1.6c0.9,0.5,1.3-0.3,1.6-1.1c0.2-0.5,0.3-1.3,1-1.2c1.7,0.2,4.1-1.2,4.8,1.8
	c0.1,0.6,0.7,0.7,1.2,0.6C184.8,43.2,184.9,42.9,184.9,42.5z M180,39.6c-1.4,0-1.5-0.5-1-1.5c0.4-0.7,0.6-1.5,1-2.4
	c0.8,0.6,0.8,1.5,1.2,2.1C182,39.1,181.7,39.6,180,39.6z"/>
<path class="st1" d="M113.3,42.6c-0.1-0.2-0.1-0.3-0.2-0.4c-1.1-2.7-2.3-5.3-3.4-8c-0.2-0.5-0.5-0.8-1.1-0.8c-0.7,0-0.9,0.5-1.1,1
	c-1.1,2.5-2.2,4.9-3.3,7.4c-0.2,0.5-0.7,1.1,0,1.4c0.6,0.3,1.2,0,1.5-0.7c0.2-0.6,0.3-1.5,1.1-1.6c1.2-0.1,2.4-0.1,3.5,0
	c0.9,0.1,0.9,1.1,1.2,1.8c0.3,0.5,0.6,0.7,1.2,0.6C113.2,43.2,113.4,43,113.3,42.6z M108.8,39.6c-1.6,0-2.1-0.3-1.2-1.8
	c0.4-0.6,0.6-1.3,1.1-2.4c0.5,1.1,0.8,1.8,1.1,2.5C110.2,38.8,110.5,39.6,108.8,39.6z"/>
<path class="st1" d="M165.1,26.1c-1.3-2.9-2.4-5.9-3.8-8.7c-0.6-1.1-1.5-0.3-1.9,0.7c-1.1,2.4-2.1,4.8-3.2,7.2
	c-0.2,0.4-0.8,1-0.1,1.4c0.7,0.4,1.3,0,1.6-0.8c0.3-0.7,0.4-1.6,1.4-1.5c1.6,0.2,3.7-0.8,4.4,1.8c0.2,0.7,0.8,0.6,1.4,0.5
	C165.1,26.6,165.2,26.4,165.1,26.1z M159.9,23.1c-0.9-0.1-1.1-0.3-0.8-1.1c0.4-0.9,0.7-1.8,1.3-3.1c0.5,1.1,0.7,1.7,1,2.3
	C162.1,23,161.9,23.2,159.9,23.1z"/>
<path class="st1" d="M146.8,84.5c-1-2.4-2-4.7-3-7c-0.3-0.6-0.4-1.4-1.3-1.4c-0.9,0-1,0.8-1.3,1.4c-1.2,2.5-2.1,5.3-3.5,7.7
	c-0.2,0.3-0.2,0.6,0.1,0.8c1,0.1,1.7-0.3,2-1.4c0.1-0.5,0.4-1.2,1.1-1.1c1.6,0.2,3.9-1.1,4.6,1.7c0.2,0.6,0.8,0.8,1.4,0.6
	C147.7,85.5,147,84.9,146.8,84.5z M141.2,82c-0.4-1.2,0.6-2.4,1.4-3.8c0.6,1.4,1,2.6,1.5,3.8C143,82.3,141.4,82.6,141.2,82z"/>
<path class="st1" d="M156,79.8c0,1,0.1,2,0,2.9c-0.2,2.1-1.8,3.5-3.7,3.5c-1.9,0-3.6-1.4-3.8-3.4c-0.2-1.9-0.1-3.9-0.1-5.8
	c0-0.5,0.2-1,0.8-0.9c0.7,0,0.8,0.4,0.8,1c0,1.7,0,3.3,0,5c0,1.5,0.6,2.7,2.2,2.7c1.7,0,2.4-1.1,2.4-2.8c0-1.6,0-3.2,0-4.8
	c0-0.6,0-1.2,0.8-1.1c0.7,0.1,0.7,0.5,0.7,1C156.1,78,156.1,78.9,156,79.8L156,79.8z"/>
<path class="st1" d="M179.9,85.1c-1.2-2.8-2.3-5.7-3.7-8.5c-0.6-1.2-1.5-0.5-1.9,0.5c-1.1,2.5-2.2,4.9-3.3,7.4
	c-0.2,0.5-0.8,1.1,0.1,1.4c0.7,0.3,1.1-0.1,1.4-0.8c0.2-0.6,0.3-1.6,1.2-1.5c1.7,0.2,3.9-1.1,4.6,1.8c0.1,0.6,0.7,0.7,1.2,0.6
	C179.9,85.9,180,85.5,179.9,85.1z M173.7,82.2c0.4-1.4,0.8-2.5,1.7-3.9c0.6,1.5,1,2.6,1.5,3.9H173.7z"/>
<path class="st1" d="M135.2,42.6c-1.3-3-2.5-6-3.9-8.9c-0.4-0.8-1.4-0.4-1.7,0.5c-1.1,2.6-2.3,5.2-3.4,7.8c-0.2,0.4-0.7,0.9,0,1.2
	c0.5,0.2,1,0.1,1.4-0.5c0.3-0.6,0.4-1.8,1.2-1.7c1.7,0.1,4-1.2,4.8,1.7c0.2,0.6,0.8,0.7,1.4,0.6C135.1,43.2,135.3,42.9,135.2,42.6z
	 M131.7,39.3c-0.5,0.3-1.3,0.2-2,0.2c-0.7,0-0.9-0.3-0.6-0.9c0.4-1,0.8-1.9,1.3-3.2c0.5,1,0.8,1.6,1.1,2.2
	C131.6,38.2,132.3,38.9,131.7,39.3z"/>
<path class="st1" d="M197,77.1c-0.2-0.5-0.4-1.1-1.1-1c-0.6,0-0.8,0.4-1,0.9c-1.2,2.7-2.3,5.3-3.5,8c-0.1,0.3-0.3,0.7,0.1,0.9
	c0.4,0.2,0.8,0.2,1.1-0.1c0.3-0.3,0.5-0.7,0.6-1.1c0.6-1.8,2.1-0.9,3.2-1.1c1-0.1,2-0.1,2.3,1.2c0.3,1,0.9,1.5,2.1,1
	C199.4,82.8,198.2,79.9,197,77.1z M194.3,82.2c0.1-1.4,0.8-2.4,1.5-4c0.6,1.5,1.1,2.7,1.6,3.8C196.4,82.4,195.4,82.3,194.3,82.2z"/>
<path class="st1" d="M112.3,85c-1.2-2.8-2.4-5.7-3.8-8.5c-0.5-1-1.4-0.4-1.8,0.5c-1.1,2.5-2.2,5.1-3.4,7.6c-0.2,0.4-0.6,1,0,1.2
	c0.5,0.2,1.2,0.1,1.3-0.6c0.4-1.7,1.5-1.8,3-1.8c1.4,0,2.6,0,3,1.7c0.1,0.5,0.6,0.7,1.1,0.7C112.2,85.9,112.4,85.6,112.3,85z
	 M109.1,81.9c-0.1,0.7-1.8,0.3-2.9,0.2c0.2-1.4,0.8-2.5,1.5-4.1C108.4,79.7,109.3,80.9,109.1,81.9z"/>
<path class="st1" d="M188.6,25.8c-1.2-2.7-2.3-5.7-3.8-8.5c-0.5-1-1.4-0.3-1.8,0.6c-1.1,2.5-2.2,5.1-3.3,7.6
	c-0.2,0.4-0.6,0.9,0.1,1.2c0.6,0.2,1.2,0,1.3-0.6c0.3-1.8,1.6-1.7,3-1.7c1.4,0,2.6,0.1,3,1.8c0.1,0.6,0.6,0.7,1.1,0.6
	C188.6,26.7,188.7,26.5,188.6,25.8z M185.3,22.8c-0.2,0.7-1.7,0.2-3,0.3c0.6-1.4,1-2.6,1.6-4.1C184.7,20.4,185.7,21.6,185.3,22.8z"
	/>
<path class="st1" d="M144.4,25.7c-1.2-2.7-2.3-5.5-3.6-8.2c-0.6-1.2-1.4-0.9-1.9,0.2c-1.1,2.5-2.2,5-3.4,7.6c-0.2,0.4-0.7,1,0.1,1.3
	c0.6,0.2,1-0.1,1.3-0.7c0.3-0.6,0.3-1.7,1.3-1.6c1.7,0.2,3.9-1,4.6,1.8c0.1,0.6,0.7,0.6,1.2,0.6c0.3,0,0.4-0.3,0.4-0.6
	C144.4,26,144.4,25.9,144.4,25.7z M138.2,22.9c0.5-1.2,1-2.4,1.5-3.7c0.9,1.1,1.1,2.3,1.7,3.6C140.4,23.3,139.4,23.1,138.2,22.9z"/>
<path class="st1" d="M113.1,68.7c0-0.1-0.1-0.2-0.1-0.3c-1.1-2.7-2.3-5.3-3.4-8c-0.2-0.5-0.5-0.8-1.1-0.8c-0.7,0-0.9,0.6-1.1,1.1
	c-1.1,2.4-2.1,4.8-3.1,7.2c-0.2,0.4-1,1.1,0,1.5c0.7,0.3,1.1-0.2,1.4-0.9c0.3-0.6,0.2-1.6,1.2-1.5c1.7,0.2,3.9-1.1,4.6,1.7
	c0.2,0.7,0.8,0.7,1.3,0.6C113.1,69.3,113.2,69.1,113.1,68.7z M108.6,65.9c-1.4,0-2-0.3-1.2-1.7c0.4-0.7,0.6-1.4,1-2.2
	c0.9,0.6,1,1.5,1.3,2.2C110.2,65.4,110.1,65.9,108.6,65.9z"/>
<path class="st1" d="M218.3,66.7c-0.2,1.9-1.9,3.1-3.8,3c-1.9-0.1-3.4-1.4-3.6-3.3c-0.1-1,0-2.1,0-3.1h0v-2.7c0-0.5,0-1,0.7-1
	c0.7,0,0.8,0.5,0.8,1c0,1.5,0,3,0,4.6c0,1.6,0.4,3,2.3,3.2c1.4,0.1,2.4-1.2,2.5-3.2c0-1.5,0-3,0-4.6c0-0.5,0-1,0.7-0.9
	c0.5,0,0.7,0.4,0.7,0.8C218.4,62.6,218.5,64.6,218.3,66.7z"/>
<path class="st1" d="M120.3,67.1c-0.3,1.9-1.7,2.6-2.9,2.6c-1.4,0-2.3-0.2-3-0.7c-0.4-0.3-0.9-0.6-0.3-1.1c0.3-0.3,0.7-0.8,1.2-0.3
	c0.4,0.4,0.9,0.6,1.5,0.7c0.8,0,1.5-0.3,1.8-1.1c0.3-1-0.3-1.4-1.1-1.7c-0.5-0.2-1.1-0.3-1.6-0.6c-1.3-0.5-2-1.4-1.9-2.9
	c0.1-1.2,0.7-2.1,1.9-2.5c1.3-0.4,2.6-0.4,3.8,0.4c0.3,0.2,0.4,0.5,0.2,0.9c-0.2,0.4-0.5,0.7-1,0.5c-0.4-0.2-0.7-0.4-1.1-0.5
	c-0.9-0.2-1.7,0-2,1c-0.3,0.9,0.3,1.4,1.1,1.7c0.4,0.1,0.8,0.3,1.2,0.4C119.5,64.4,120.6,65.4,120.3,67.1z"/>
<path class="st1" d="M162.9,68.8c0-0.1-0.1-0.3-0.1-0.4c-1.2-2.7-2.2-5.5-3.6-8.2c-0.6-1.2-1.4-0.8-1.9,0.3
	c-1.1,2.5-2.2,4.9-3.2,7.4c-0.2,0.4-0.9,1,0,1.4c0.6,0.3,1.2,0,1.4-0.8c0.3-1.3,1.1-1.7,2.4-1.7c1.5,0.1,3.1-0.2,3.5,1.9
	c0.1,0.6,0.7,0.6,1.2,0.5C162.8,69.3,162.9,69.1,162.9,68.8z M157.6,65.9c-0.8-0.1-1.2-0.2-0.7-1.1c0.4-0.9,0.8-1.9,1.4-3.3
	c0.4,1.1,0.7,1.7,0.9,2.3C160,65.8,159.8,66.1,157.6,65.9z"/>
<path class="st1" d="M149.9,40.9c-0.3,1.6-1.7,2.6-3.8,2.5c-0.2,0-0.6,0-1-0.2c-0.7-0.3-1.9-0.4-1.5-1.5c0.4-1.1,1.2-0.3,1.8,0
	c1,0.4,2.2,0.5,2.7-0.7c0.5-1.3-0.7-1.6-1.5-2c-0.5-0.2-0.9-0.3-1.4-0.5c-1.2-0.5-1.8-1.5-1.6-2.8c0.1-1.3,0.9-2.1,2.2-2.4
	c1.3-0.4,2.5-0.2,3.6,0.6c0.3,0.2,0.3,0.4,0.1,0.7c-0.3,0.3-0.5,0.7-1,0.6c-0.5-0.1-0.9-0.5-1.3-0.6c-0.8-0.1-1.6,0.1-1.9,0.9
	c-0.4,0.9,0.2,1.4,1,1.8c0.4,0.2,0.8,0.3,1.2,0.4C149.1,38.1,150.2,39,149.9,40.9z"/>
<path class="st1" d="M127.9,67.1c-0.4,1.9-1.7,2.5-3.6,2.6c-0.4-0.1-0.9-0.1-1.3-0.3c-0.6-0.3-1.8-0.4-1.3-1.4
	c0.4-1.1,1.2-0.4,1.8,0c1,0.5,2.1,0.5,2.7-0.7c0.6-1.3-0.6-1.6-1.5-2c-0.4-0.2-0.8-0.2-1.2-0.4c-1.2-0.5-1.9-1.4-1.9-2.7
	c0-1.3,0.7-2.2,2-2.6c1.3-0.4,2.6-0.4,3.8,0.5c0.3,0.2,0.4,0.6,0.1,0.9c-0.3,0.3-0.6,0.6-1.1,0.4c-0.4-0.2-0.9-0.5-1.3-0.5
	c-0.8-0.1-1.6,0.2-1.8,1.1c-0.3,0.8,0.3,1.3,1,1.6c0.4,0.2,0.9,0.3,1.4,0.5C127.1,64.5,128.2,65.3,127.9,67.1z"/>
<path class="st1" d="M142.3,40.8c-0.2,1.6-1.6,2.6-3.7,2.6c-0.2,0-0.5,0-0.8-0.1c-0.8-0.3-2.1-0.4-1.8-1.5c0.4-1.3,1.3-0.2,2,0
	c1.1,0.4,2.2,0.3,2.6-1c0.4-1.2-0.7-1.5-1.5-1.8c-1-0.4-2.2-0.6-2.7-1.7c-0.6-1.4-0.5-2.7,0.9-3.7c1.2-0.9,3.7-0.8,4.5,0.1
	c0.3,0.3,0.3,0.6,0.1,0.9c-0.3,0.3-0.6,0.7-1,0.3c-0.5-0.3-1-0.6-1.5-0.5c-0.7,0.1-1.4,0.3-1.6,1.1c-0.2,0.9,0.3,1.3,1,1.6
	c0.4,0.2,0.9,0.3,1.4,0.5C141.5,38.1,142.5,39.1,142.3,40.8z"/>
<path class="st1" d="M170.6,42.4c-0.9,0.8-1.9,1.1-3.1,1c-2.1,0-4-1.2-4.7-3.1c-0.8-2-0.3-4.4,1.1-5.8c1.4-1.4,3.7-1.9,5.6-1
	c0.6,0.3,1.6,0.4,1.2,1.3c-0.4,1-1,0.6-1.8,0.1c-1.5-0.9-3-0.4-4,0.9c-1.2,1.5-1.3,3.2-0.2,4.8c1,1.4,2.4,1.7,4.1,1.1
	c0.3-0.1,0.6-0.3,0.9-0.6c0.5-0.5,0.9-0.1,1.2,0.2C171.4,41.8,170.9,42.1,170.6,42.4z"/>
<path class="st1" d="M112,25.8c0,0.4-0.1,0.8-0.6,0.9c-0.7,0-0.8-0.4-0.8-0.9c0-0.4-0.1-0.8,0-1.2c0.3-1.7-0.2-2.5-2.2-2.3
	c-2.6,0.2-2.6,0-2.7,2.9c0,0.6,0.4,1.6-0.8,1.6c-0.9,0-0.7-0.9-0.7-1.5c0-2.4,0-4.7,0-7.1c0-0.5-0.1-1.2,0.7-1.2
	c0.8,0,0.7,0.7,0.7,1.2c0.1,0.9-0.5,2.1,0.3,2.6c1.1,0.6,2.4,0.2,3.7,0.2c0.8,0,0.9-0.5,0.9-1.1c0-0.6,0-1.3,0-1.9
	c0-0.5,0.1-1,0.7-1c0.7,0,0.8,0.5,0.8,1c0,1.3,0,2.6,0,4C112,23.2,112,24.5,112,25.8z"/>
<path class="st1" d="M148,69.1c-0.7,0.5-1.5,0.6-2.4,0.6c-2.1,0-3.9-1.2-4.7-3.2c-0.9-2.1-0.4-4.4,1.3-5.9c1.6-1.5,3.5-1.7,5.4-0.9
	c0.6,0.2,1.5,0.5,1.1,1.4c-0.4,0.9-1,0.5-1.7,0.1c-1.6-0.9-3.2-0.5-4.2,1c-1.1,1.5-1.1,3.3,0.1,4.8c1.1,1.4,2.6,1.8,4.2,0.8
	c0.6-0.4,1.2-1,1.7-0.2C149.5,68.5,148.5,68.8,148,69.1z"/>
<path class="st1" d="M136.8,86c-0.3,0-0.6,0-0.8-0.1c-1.8-0.1-4.1,0.8-5.2-0.4c-1.1-1.2-0.3-3.5-0.3-5.2c0-4.3,0-4.3,4.2-4.2
	c0.4,0,0.8,0,1.3,0c0.4,0,0.8,0.1,0.9,0.7c0,0.6-0.5,0.6-0.9,0.6c-0.8,0-1.5,0.1-2.3,0c-1.1-0.1-1.8,0-1.8,1.5
	c0,1.4,0.7,1.3,1.7,1.4c1,0.1,2.8-0.7,2.8,0.6c0,1.3-1.8,0.5-2.8,0.6c-1.9,0.2-2,0.4-1.3,2.9c1.2,0.4,2.4,0.1,3.6,0.2c0,0,0,0,0,0
	c0.1,0,0.2,0,0.3,0C137.1,84.7,137.5,85,136.8,86z"/>
<path class="st1" d="M133.8,26.2c-1.6,1.1-3.4,1.1-5.1,0.2c-1.8-1-2.7-2.5-2.6-4.6c0-3.9,3.8-6.4,7.2-4.6c0.5,0.3,1.4,0.4,1,1.3
	c-0.3,0.7-0.9,0.5-1.6,0.2c-1.7-1-3.2-0.6-4.4,0.9c-1.1,1.4-1,3.7,0.2,5c1.3,1.4,2.9,1.5,4.5,0.4c0.6-0.4,1-0.4,1.4,0.1
	C134.9,25.7,134.1,25.9,133.8,26.2z"/>
<path class="st1" d="M169.3,85.3c-1.6,1.1-3.3,1.2-5.1,0.4c-1.7-0.9-2.7-2.5-2.8-4.5c-0.1-4,4-6.6,7.4-4.7c0.5,0.3,1.4,0.4,0.8,1.3
	c-0.4,0.6-0.9,0.4-1.4,0.1c-1.8-1.1-3.3-0.6-4.5,1c-1.1,1.4-1,3.6,0.2,4.8c1.4,1.4,3,1.8,4.6,0.4c0.6-0.4,1-0.4,1.4,0.2
	C170.2,84.8,169.6,85,169.3,85.3z"/>
<path class="st1" d="M191.6,34c0,0.7-0.5,0.8-1,0.7c-2.2-0.4-2.1,0.9-2.1,2.4c0.1,1.7,0,3.3,0,5c0,0.6,0,1.2-0.8,1.2
	c-0.9,0-0.7-0.7-0.7-1.2c0-1,0-2.1,0-3.1c0-0.6-0.1-1.1,0-1.7c0.2-1.7,0.1-3.1-2.2-2.6c-0.4,0.1-0.8-0.1-0.9-0.6
	c0-0.5,0.3-0.7,0.8-0.7c2,0,4,0,6,0C191.1,33.4,191.6,33.4,191.6,34z"/>
<path class="st1" d="M169.6,60.3c0,1-0.8,0.8-1.4,0.8c-1.4-0.2-1.8,0.4-1.7,1.8c0.1,1.8,0,3.6,0,5.4c0,0.5,0.1,1.2-0.7,1.2
	c-0.8,0-0.7-0.7-0.7-1.2c0-1.7-0.1-3.5,0-5.2c0.1-1.5-0.3-2.2-1.9-2c-0.5,0.1-1.2,0.2-1.2-0.7c0-0.9,0.7-0.7,1.2-0.7
	c1.8,0,3.6,0,5.4,0C169,59.6,169.5,59.5,169.6,60.3z"/>
<path class="st1" d="M103,17.5c0.1,0.8-0.6,0.8-1.2,0.8c-1.8-0.3-2.1,0.6-2,2.2c0.1,1.7,0,3.5,0,5.2c0,0.6,0,1.2-0.8,1.1
	c-0.7,0-0.6-0.7-0.6-1.1c0-1,0-2.1,0-3.1c0-0.6-0.1-1.3,0-1.9c0.2-1.6-0.1-2.8-2.1-2.4c-0.4,0.1-1,0.1-1.1-0.6c0-0.7,0.5-0.7,1-0.7
	c1.9,0,3.7,0,5.6,0C102.3,16.9,102.9,16.8,103,17.5z"/>
<path class="st1" d="M101.3,68.8c0,1.3-1.6,0.6-2.4,0.6c-3.4,0.1-3.4,0-3.4-3.3v-1.7c0-1.2,0-2.5,0-3.7c0-0.5-0.1-1,0.6-1.1
	c0.8,0,0.8,0.6,0.8,1.1c0,1.7,0.1,3.5,0,5.2c-0.2,1.7,0.4,2.3,2.1,2.2C99.7,68.1,101.3,67.5,101.3,68.8z"/>
<path class="st1" d="M194.3,42c0,0.5,0.1,1.2-0.7,1.2c-0.8,0.1-0.8-0.5-0.8-1.1c0-2.6,0-5.1,0-7.6c0-0.6,0-1.2,0.8-1.1
	c0.8,0,0.7,0.7,0.8,1.2c0,1.2,0,2.5,0,3.7C194.4,39.6,194.4,40.8,194.3,42z"/>
<path class="st1" d="M172.4,60.6v4c0,1.3,0,2.6,0,4c0,0.5-0.2,1-0.8,1c-0.7,0-0.8-0.5-0.8-1c0-2.6,0-5.3,0-7.9
	c0-0.6,0.2-0.9,0.8-0.9C172.3,59.6,172.4,60,172.4,60.6z"/>
<path class="st1" d="M152.3,64.7c0,1.2,0,2.5,0,3.7c0,0.5-0.1,1-0.8,1c-0.7,0-0.7-0.5-0.7-1c0-2.6,0-5.3,0-7.9c0-0.5,0.1-1,0.8-0.9
	c0.7,0,0.8,0.5,0.8,1C152.3,62,152.3,63.4,152.3,64.7z"/>
<path class="st1" d="M177.2,26.7c-0.7,0-0.7-0.6-0.7-1.1c0-2.6,0-5.1,0-7.7c0-0.5,0.1-1,0.7-1c0.7,0,0.7,0.6,0.7,1.1
	c0,1.2,0,2.5,0,3.7s0,2.5,0,3.7C177.9,26,178.1,26.7,177.2,26.7z"/>
<path class="st1" d="M213.4,84.8c0,0.5,0.1,1-0.6,1.1c-0.7,0-0.8-0.4-0.8-1v-7.9c0-0.5,0.1-1,0.8-1c0.7,0,0.6,0.6,0.6,1.1
	c0,1.3,0,2.6,0,3.9C213.4,82.3,213.5,83.6,213.4,84.8z"/>
<path class="st1" d="M174.1,42.1c0,0.4,0.2,1.1-0.6,1.1c-0.8,0-0.8-0.6-0.8-1.1v-7.7c0-0.5,0.1-1,0.7-1c0.7,0,0.6,0.6,0.6,1
	c0,1.3,0,2.6,0,3.9C174.1,39.6,174.2,40.9,174.1,42.1z"/>
<path class="st1" d="M102.8,60.5c-0.5,0.8-0.2,2.2-1.6,2.6c-0.4,0.1-0.7-0.3-0.5-0.7c0.5-1,0-2.4,1.5-2.8
	C102.5,59.5,103,59.7,102.8,60.5z"/>
<path class="st1" d="M135.9,84.6C135.9,84.6,135.9,84.6,135.9,84.6c-1.2,0-2.4,0.2-3.6-0.2C133.5,84.8,134.7,84.5,135.9,84.6z"/>
<path class="st1" d="M136.8,86c0.4-0.8,0.3-1.3-0.6-1.4C137.1,84.7,137.5,85,136.8,86z"/>
<path class="st1" d="M137.9,86c-0.4-0.2-0.4-0.5-0.1-0.8C137.8,85.4,137.8,85.7,137.9,86z"/>
<path class="st4" d="M57.4,36.3c1.3,2.1,1.9,4.3,2.7,6.3c2.1,5.4,4.2,10.9,6.4,16.3c0.5,1.2,0.4,1.7-1.1,1.7c-5.3-0.1-10.6,0-15.8,0
	c-0.8,0-1.6,0-1.1-1.2C51.4,51.8,54.3,44.1,57.4,36.3z"/>
<path class="st1" d="M28.1,60.5c-6.4,0-12.5,0-18.9,0c1.6-4.1,3.1-8.1,4.6-12c1.6-4,3.1-8,4.8-12.5C21.9,44.4,25,52.4,28.1,60.5z"/>
</svg>
