<?xml version="1.0" encoding="utf-8"?>
<!-- Generator: Adobe Illustrator 23.0.3, SVG Export Plug-In . SVG Version: 6.00 Build 0)  -->
<svg version="1.1" id="Layer_1" xmlns="http://www.w3.org/2000/svg" xmlns:xlink="http://www.w3.org/1999/xlink" x="0px" y="0px"
	 viewBox="0 0 520 101" style="enable-background:new 0 0 520 101;" xml:space="preserve">
<style type="text/css">
	.st0{fill:#D8B82A;}
	.st1{fill:#4F4F4F;}
	.st2{fill:#7F7F7F;}
</style>
<path class="st0" d="M48.5,23.6c14.3,0,25.9,11.6,25.9,25.9c0,14.3-11.6,25.9-25.9,25.9S22.5,63.9,22.5,49.5
	C22.5,35.2,34.1,23.6,48.5,23.6 M48.5,19.7c-16.4,0-29.8,13.4-29.8,29.8C18.7,66,32,79.3,48.5,79.3S78.2,66,78.2,49.5
	C78.2,33.1,64.9,19.7,48.5,19.7L48.5,19.7z"/>
<path class="st0" d="M48.5,16.2c18.4,0,33.3,14.9,33.3,33.3S66.9,82.9,48.5,82.9S15.1,67.9,15.1,49.5S30,16.2,48.5,16.2 M48.5,12.4
	C28,12.4,11.3,29,11.3,49.5S28,86.7,48.5,86.7S85.6,70,85.6,49.5S69,12.4,48.5,12.4L48.5,12.4z"/>
<path class="st0" d="M48.5,9.2c22.3,0,40.3,18,40.3,40.3s-18,40.3-40.3,40.3S8.1,71.8,8.1,49.5S26.2,9.2,48.5,9.2 M48.5,5.4
	C24.1,5.4,4.3,25.2,4.3,49.5s19.8,44.2,44.2,44.2s44.2-19.8,44.2-44.2S72.8,5.4,48.5,5.4L48.5,5.4z"/>
<g>
	<g>
		<path class="st1" d="M127.1,44h-14.5V20.4h4.5v19.8h10V44z"/>
		<path class="st1" d="M144.9,44h-3.8c-0.3-1.1-0.5-2.2-0.6-3.5c-1,2.6-3,3.9-5.9,3.9c-1.7,0-3.1-0.5-4.2-1.5
			c-1.1-1-1.6-2.3-1.6-3.8c0-4,3.5-6,10.6-6c0.3,0,0.7,0,1.1,0v-1.3c0-1.8-1.2-2.7-3.7-2.7c-2.4,0-3.8,0.9-4.1,2.7l-3.4-0.5
			c0.2-1.5,0.9-2.6,2.2-3.6c1.3-0.9,3.2-1.4,5.7-1.4c1.3,0,2.5,0.1,3.3,0.3c0.9,0.2,1.6,0.6,2.2,1.1c0.6,0.5,1,1.1,1.2,1.7
			c0.2,0.6,0.3,1.7,0.3,3.2v7.9C144.4,41.6,144.6,42.8,144.9,44z M140.6,35.1c-5.1,0-7.6,1.2-7.6,3.6c0,0.7,0.3,1.3,0.8,1.9
			c0.5,0.5,1.3,0.8,2.3,0.8c1.5,0,2.6-0.5,3.4-1.4c0.8-1,1.1-2,1.1-3.2V35.1z"/>
		<path class="st1" d="M170.8,26.5L165.7,44h-3.5L159,31.7L155.8,44h-3.6l-5.4-17.5h4.2l3.4,11.7l3-11.7h3.6l3.1,11.7l3.4-11.7
			H170.8z"/>
		<path class="st1" d="M180.1,38.3l4.1-0.9c0.5,2.3,2.4,3.5,5.7,3.5c1.5,0,2.7-0.3,3.5-0.9c0.8-0.6,1.2-1.3,1.2-2.2
			c0-0.6-0.2-1.2-0.6-1.8c-0.4-0.5-1.2-1-2.4-1.3l-4.5-1.2c-1.5-0.4-2.7-0.9-3.4-1.4c-0.7-0.5-1.3-1.2-1.8-2.2
			c-0.4-0.9-0.7-1.9-0.7-3c0-2.1,0.8-3.8,2.4-5.1c1.6-1.3,3.6-1.9,6-1.9c2,0,3.8,0.4,5.4,1.3c1.6,0.9,2.6,2.1,3.1,3.8l-4,1
			c-0.6-1.8-2.1-2.7-4.4-2.7c-1.3,0-2.3,0.3-3,0.8c-0.7,0.6-1,1.3-1,2.1c0,1.3,1.1,2.3,3.3,2.8l4,1c2.4,0.6,4.1,1.5,4.9,2.7
			c0.8,1.2,1.2,2.5,1.2,4c0,2.3-0.9,4.1-2.6,5.5c-1.7,1.3-4,2-6.8,2c-2.3,0-4.4-0.5-6.1-1.5C181.9,41.9,180.7,40.4,180.1,38.3z"/>
		<path class="st1" d="M209.4,44.3c-2.6,0-4.6-0.9-5.9-2.8c-1.4-1.9-2-4-2-6.4c0-2.6,0.8-4.7,2.3-6.5c1.5-1.7,3.5-2.6,6-2.6
			c2.3,0,4.3,0.8,5.8,2.5c1.5,1.7,2.3,3.8,2.3,6.5c0,2.8-0.8,5-2.3,6.7C213.8,43.5,211.8,44.3,209.4,44.3z M209.6,41.1
			c2.7,0,4-2,4-5.9c0-1.8-0.3-3.2-1-4.2c-0.6-1-1.6-1.5-2.9-1.5c-1.4,0-2.4,0.5-3,1.6s-1,2.5-1,4.2c0,1.9,0.3,3.4,1,4.4
			C207.4,40.6,208.4,41.1,209.6,41.1z"/>
		<path class="st1" d="M231.4,37.5l3.4,0.3c-0.4,2.2-1.3,3.8-2.5,4.9c-1.3,1-2.8,1.6-4.5,1.6c-2.4,0-4.3-0.9-5.6-2.6
			s-1.9-3.9-1.9-6.5c0-2.6,0.7-4.8,2.1-6.5c1.4-1.7,3.3-2.6,5.7-2.6c3.8,0,6.1,2,6.8,6l-3.4,0.5c-0.3-2.2-1.4-3.3-3.2-3.3
			c-1.3,0-2.3,0.6-2.9,1.8c-0.6,1.2-0.9,2.6-0.9,4.2c0,1.8,0.3,3.1,0.9,4.1c0.6,1,1.5,1.4,2.6,1.4C229.7,40.9,230.9,39.8,231.4,37.5
			z"/>
		<path class="st1" d="M241.8,24.5h-3.9v-4.1h3.9V24.5z M241.8,44h-3.9V26.5h3.9V44z"/>
		<path class="st1" d="M257.6,38.4l3.6,0.5c-0.5,1.6-1.4,2.9-2.7,3.9c-1.3,1-3,1.5-5,1.5c-2.4,0-4.4-0.8-5.8-2.4
			c-1.5-1.6-2.2-3.8-2.2-6.6c0-2.6,0.7-4.8,2.2-6.6c1.5-1.7,3.5-2.6,6.1-2.6c2.5,0,4.4,0.9,5.8,2.6c1.4,1.7,2,3.9,2,6.6l0,0.4h-12
			c0,1.2,0.1,2.1,0.3,2.9c0.2,0.7,0.7,1.3,1.3,1.9c0.7,0.5,1.5,0.8,2.5,0.8C255.6,41.2,256.9,40.3,257.6,38.4z M257.4,33.2
			c0-1.3-0.4-2.3-1.1-3.1c-0.7-0.8-1.7-1.2-2.8-1.2c-1.1,0-2,0.4-2.7,1.1c-0.7,0.7-1.2,1.8-1.3,3.2H257.4z"/>
		<path class="st1" d="M273,40.9V44c-1.2,0.3-2.1,0.4-2.7,0.4c-1.1,0-2-0.2-2.7-0.6c-0.8-0.4-1.3-1-1.7-1.7
			c-0.4-0.7-0.5-1.9-0.5-3.4v-9h-2.2v-3.1h2.4l0.4-4.5l3.2-0.3v4.8h3.5v3.1h-3.5v8.5c0,1.1,0.2,1.8,0.6,2.2c0.4,0.4,1.2,0.6,2.3,0.6
			C272.3,40.9,272.6,40.9,273,40.9z"/>
		<path class="st1" d="M289.3,26.5l-6.8,19.9c-0.4,1.2-1,2.2-1.7,2.8c-0.7,0.7-1.7,1-3.1,1c-0.5,0-1.3,0-2.3-0.1V47l1.9,0
			c0.8,0,1.4-0.1,1.8-0.4c0.4-0.3,0.7-0.8,0.9-1.4c0.2-0.7,0.3-1.1,0.3-1.2c0-0.1-0.1-0.4-0.4-1.1l-6-16.4h4.1l4.2,11.5l3.6-11.5
			H289.3z"/>
	</g>
</g>
<g>
	<g>
		<path class="st1" d="M351.2,41.1V17.5h9.2c1.6,0,2.8,0.2,3.9,0.5c1,0.3,1.9,1,2.7,2c0.7,1,1.1,2.2,1.1,3.6c0,1.3-0.4,2.4-1.1,3.4
			c-0.8,1-1.8,1.6-3.1,1.8c1.7,0.3,2.9,1,3.8,2c0.9,1.1,1.3,2.3,1.3,3.8c0,1.8-0.6,3.4-1.8,4.6c-1.2,1.2-3,1.9-5.5,1.9H351.2z
			 M355.2,27.4h5.2c1.1,0,1.9-0.3,2.5-1c0.6-0.6,0.9-1.4,0.9-2.4c0-1.1-0.4-1.9-1.1-2.4c-0.7-0.5-1.5-0.8-2.5-0.8h-5.1V27.4z
			 M355.2,37.5h5.5c1.2,0,2.1-0.3,2.8-0.9c0.7-0.6,1-1.4,1-2.5c0-1-0.3-1.8-1-2.4c-0.7-0.6-1.6-1-2.7-1h-5.5V37.5z"/>
		<path class="st1" d="M387.4,41.1h-3.8c-0.3-1.1-0.5-2.2-0.6-3.5c-1,2.6-3,3.9-5.9,3.9c-1.7,0-3.1-0.5-4.2-1.5
			c-1.1-1-1.6-2.3-1.6-3.8c0-4,3.5-6,10.6-6c0.3,0,0.7,0,1.1,0v-1.3c0-1.8-1.2-2.7-3.7-2.7c-2.4,0-3.8,0.9-4.1,2.7l-3.4-0.5
			c0.2-1.5,0.9-2.6,2.2-3.6c1.3-0.9,3.2-1.4,5.7-1.4c1.3,0,2.5,0.1,3.3,0.3c0.9,0.2,1.6,0.6,2.2,1.1c0.6,0.5,1,1.1,1.2,1.7
			c0.2,0.6,0.3,1.7,0.3,3.2v7.9C386.9,38.7,387,39.9,387.4,41.1z M383,32.2c-5.1,0-7.6,1.2-7.6,3.6c0,0.7,0.3,1.3,0.8,1.9
			c0.5,0.5,1.3,0.8,2.3,0.8c1.5,0,2.6-0.5,3.4-1.4c0.8-1,1.1-2,1.1-3.2V32.2z"/>
		<path class="st1" d="M395.5,41.1h-3.9V23.6h3.6v4.2c0.5-1.6,1.2-2.8,2.1-3.6c0.9-0.7,1.8-1.1,2.7-1.1c0.1,0,0.3,0,0.5,0v4.2
			c-2,0-3.3,0.6-4,1.9c-0.7,1.3-1,2.5-1,3.7V41.1z"/>
		<path class="st1" d="M407.3,41.1h-3.9V23.6h3.6v4.2c0.5-1.6,1.2-2.8,2.1-3.6c0.9-0.7,1.8-1.1,2.7-1.1c0.1,0,0.3,0,0.5,0v4.2
			c-2,0-3.3,0.6-4,1.9c-0.7,1.3-1,2.5-1,3.7V41.1z"/>
		<path class="st1" d="M426.2,35.5l3.6,0.5c-0.5,1.6-1.4,2.9-2.7,3.9c-1.3,1-3,1.5-5,1.5c-2.4,0-4.4-0.8-5.8-2.4s-2.2-3.8-2.2-6.6
			c0-2.6,0.7-4.8,2.2-6.6c1.5-1.7,3.5-2.6,6.1-2.6c2.5,0,4.4,0.9,5.8,2.6c1.4,1.7,2,3.9,2,6.6l0,0.4h-12c0,1.2,0.1,2.1,0.3,2.9
			c0.2,0.7,0.7,1.3,1.3,1.9c0.7,0.5,1.5,0.8,2.5,0.8C424.2,38.3,425.5,37.4,426.2,35.5z M425.9,30.3c0-1.3-0.4-2.3-1.1-3.1
			c-0.7-0.8-1.7-1.2-2.8-1.2c-1.1,0-2,0.4-2.7,1.1c-0.7,0.7-1.2,1.8-1.3,3.2H425.9z"/>
		<path class="st1" d="M448.6,41.1h-3.8c-0.3-1.1-0.5-2.2-0.6-3.5c-1,2.6-3,3.9-5.9,3.9c-1.7,0-3.1-0.5-4.2-1.5
			c-1.1-1-1.6-2.3-1.6-3.8c0-4,3.5-6,10.6-6c0.3,0,0.7,0,1.1,0v-1.3c0-1.8-1.2-2.7-3.7-2.7c-2.4,0-3.8,0.9-4.1,2.7l-3.4-0.5
			c0.2-1.5,0.9-2.6,2.2-3.6c1.3-0.9,3.2-1.4,5.7-1.4c1.3,0,2.5,0.1,3.3,0.3c0.9,0.2,1.6,0.6,2.2,1.1c0.6,0.5,1,1.1,1.2,1.7
			c0.2,0.6,0.3,1.7,0.3,3.2v7.9C448.1,38.7,448.2,39.9,448.6,41.1z M444.2,32.2c-5.1,0-7.6,1.2-7.6,3.6c0,0.7,0.3,1.3,0.8,1.9
			c0.5,0.5,1.3,0.8,2.3,0.8c1.5,0,2.6-0.5,3.4-1.4c0.8-1,1.1-2,1.1-3.2V32.2z"/>
		<path class="st1" d="M467.2,41.1h-3.7v-3.8c-1,2.8-2.8,4.1-5.5,4.1c-1.6,0-2.9-0.5-3.8-1.5c-0.9-1-1.4-2.4-1.4-4.1V23.6h4V35
			c0,1.3,0.3,2.1,0.8,2.5c0.6,0.4,1.1,0.6,1.6,0.6c0.9,0,1.7-0.4,2.6-1.2c0.9-0.8,1.3-2.4,1.3-4.9v-8.4h3.9V41.1z"/>
	</g>
</g>
<g>
	<g>
		<path class="st2" d="M118.4,76.9c-2.3,0-4.2-0.8-5.5-2.3c-1.4-1.5-2-3.5-2-6c0-2.7,0.7-4.7,2.1-6.2c1.4-1.5,3.3-2.3,5.6-2.3
			c2.3,0,4.1,0.7,5.4,2.2c1.3,1.5,2,3.6,2,6.2c0,2.5-0.7,4.5-2,6.1C122.6,76.2,120.8,76.9,118.4,76.9z M118.5,61.4
			c-1.9,0-3.4,0.6-4.5,1.9c-1.1,1.3-1.7,3-1.7,5.3c0,2.1,0.5,3.8,1.6,5.1c1.1,1.3,2.6,1.9,4.5,1.9c1.9,0,3.4-0.6,4.5-1.9
			c1-1.3,1.6-3,1.6-5.2c0-2.3-0.5-4-1.6-5.3C121.9,62.1,120.4,61.4,118.5,61.4z"/>
		<path class="st2" d="M136.1,54.3c-0.4-0.3-1-0.5-1.8-0.5c-2,0-3,1.3-3,4v2.7h4.2v1.3h-4.2v14.7H130V61.8h-2.9v-1.3h2.9v-2.8
			c0-1.7,0.4-3,1.3-3.8c0.9-0.9,1.9-1.3,3.2-1.3c0.7,0,1.2,0.1,1.7,0.3V54.3z"/>
		<path class="st2" d="M156.3,76.9c-3.2,0-5.7-1.1-7.6-3.2c-1.9-2.1-2.8-4.8-2.8-8.2c0-3.6,1-6.4,2.9-8.6c1.9-2.2,4.6-3.2,7.9-3.2
			c3,0,5.5,1,7.3,3.1c1.9,2.1,2.8,4.8,2.8,8.1c0,3.7-1,6.6-2.9,8.8C162.1,75.9,159.5,76.9,156.3,76.9z M156.4,55.1
			c-2.6,0-4.8,0.9-6.4,2.8c-1.7,1.9-2.5,4.4-2.5,7.4c0,3.1,0.8,5.5,2.4,7.4c1.6,1.8,3.7,2.7,6.4,2.7c2.8,0,5-0.9,6.6-2.7
			c1.6-1.8,2.4-4.3,2.4-7.6c0-3.2-0.8-5.6-2.4-7.4C161.3,56,159.2,55.1,156.4,55.1z"/>
		<path class="st2" d="M182,76.5v-9.3c0-3.8-1.4-5.8-4.2-5.8c-1.5,0-2.8,0.6-3.8,1.7c-1,1.1-1.5,2.5-1.5,4.2v9.2h-1.4v-16h1.4v2.9
			h0.1c1.2-2.2,3-3.3,5.5-3.3c1.7,0,3.1,0.6,4,1.7c0.9,1.2,1.4,2.8,1.4,4.9v9.7H182z"/>
		<path class="st2" d="M194.6,76.3c-0.8,0.4-1.5,0.5-2.1,0.5c-2.4,0-3.6-1.4-3.6-4.3V61.8h-2.9v-1.3h2.9v-4.2
			c0.2-0.1,0.5-0.2,0.7-0.3c0.3-0.1,0.5-0.2,0.7-0.2v4.6h4.2v1.3h-4.2v10.6c0,1.1,0.2,1.9,0.5,2.4c0.3,0.5,0.9,0.7,1.8,0.7
			c0.6,0,1.2-0.2,1.9-0.6V76.3z"/>
		<path class="st2" d="M207.4,76.5v-3.2h-0.1c-0.5,1.1-1.3,2-2.2,2.6c-1,0.7-2.1,1-3.2,1c-1.5,0-2.7-0.4-3.6-1.3
			c-0.9-0.9-1.3-1.9-1.3-3.2c0-2.8,1.9-4.5,5.6-5.1l4.9-0.7c0-3.4-1.3-5.2-3.9-5.2c-1.8,0-3.5,0.7-5.1,2.1v-1.7
			c0.6-0.5,1.4-0.9,2.4-1.2c1-0.3,2-0.5,2.9-0.5c1.6,0,2.9,0.5,3.8,1.5c0.9,1,1.4,2.5,1.4,4.5v10.4H207.4z M202.9,68.6
			c-1.7,0.2-2.9,0.6-3.5,1.2c-0.7,0.5-1,1.4-1,2.6c0,0.9,0.3,1.7,0.9,2.3c0.6,0.6,1.5,0.9,2.6,0.9c1.5,0,2.8-0.6,3.8-1.7
			c1-1.1,1.5-2.6,1.5-4.4v-1.6L202.9,68.6z"/>
		<path class="st2" d="M221.2,62c-0.5-0.3-1-0.5-1.7-0.5c-1.3,0-2.3,0.7-3.2,2c-0.9,1.3-1.3,3.2-1.3,5.6v7.5h-1.4v-16h1.4v3.6h0.1
			c0.4-1.2,0.9-2.2,1.7-2.8c0.8-0.7,1.7-1,2.8-1c0.6,0,1.1,0.1,1.6,0.3V62z"/>
		<path class="st2" d="M224.9,56.5c-0.3,0-0.6-0.1-0.8-0.3c-0.2-0.2-0.4-0.5-0.4-0.9c0-0.3,0.1-0.6,0.4-0.8c0.2-0.2,0.5-0.3,0.8-0.3
			c0.3,0,0.6,0.1,0.9,0.3c0.2,0.2,0.4,0.5,0.4,0.8c0,0.3-0.1,0.6-0.4,0.9C225.5,56.4,225.2,56.5,224.9,56.5z M224.2,76.5v-16h1.4v16
			H224.2z"/>
		<path class="st2" d="M237.2,76.9c-2.3,0-4.2-0.8-5.5-2.3c-1.4-1.5-2-3.5-2-6c0-2.7,0.7-4.7,2.1-6.2c1.4-1.5,3.3-2.3,5.6-2.3
			c2.3,0,4.1,0.7,5.4,2.2c1.3,1.5,2,3.6,2,6.2c0,2.5-0.7,4.5-2,6.1C241.4,76.2,239.5,76.9,237.2,76.9z M237.3,61.4
			c-1.9,0-3.4,0.6-4.5,1.9c-1.1,1.3-1.7,3-1.7,5.3c0,2.1,0.5,3.8,1.6,5.1c1.1,1.3,2.6,1.9,4.5,1.9c1.9,0,3.4-0.6,4.5-1.9
			c1-1.3,1.6-3,1.6-5.2c0-2.3-0.5-4-1.6-5.3C240.7,62.1,239.2,61.4,237.3,61.4z"/>
	</g>
</g>
<g>
	<g>
		<path class="st2" d="M363.8,76.5v-2.9h-0.1c-0.5,1-1.3,1.8-2.4,2.4c-1.1,0.6-2.3,0.9-3.6,0.9c-2,0-3.7-0.7-5-2.2
			c-1.3-1.4-1.9-3.4-1.9-6c0-2.6,0.7-4.7,2.1-6.3s3.2-2.4,5.5-2.4c2.5,0,4.3,1,5.3,3h0.1V52.8h1.5v23.7H363.8z M363.8,66.8
			c0-1.5-0.5-2.8-1.5-3.8c-1-1-2.3-1.6-4-1.6c-1.7,0-3.2,0.6-4.3,1.9c-1.1,1.3-1.7,3.1-1.7,5.3c0,2.2,0.5,3.9,1.5,5.1
			c1,1.2,2.3,1.8,4,1.8c1.9,0,3.4-0.6,4.4-1.7c1-1.1,1.6-2.5,1.6-4.1V66.8z"/>
		<path class="st2" d="M371,68.6c0,2.2,0.5,3.9,1.6,5.2c1.1,1.2,2.5,1.9,4.4,1.9c1.9,0,3.7-0.7,5.5-2v1.5c-1.7,1.2-3.6,1.8-5.8,1.8
			c-2.1,0-3.9-0.7-5.2-2.2c-1.3-1.5-2-3.6-2-6.3c0-2.3,0.7-4.3,2.1-5.9c1.4-1.6,3.2-2.4,5.4-2.4c2.1,0,3.7,0.7,4.8,2.1
			c1.1,1.4,1.7,3.3,1.7,5.7v0.6H371z M381.8,67.3c-0.1-1.8-0.5-3.3-1.4-4.3c-0.9-1-2-1.5-3.5-1.5c-1.6,0-2.9,0.5-3.9,1.5
			c-1,1-1.7,2.4-1.9,4.3H381.8z"/>
		<path class="st2" d="M396.9,76.5V54.1h1.6v22.4H396.9z"/>
		<path class="st2" d="M404.5,61.1h-1.2l2-7h1.7L404.5,61.1z"/>
		<path class="st2" d="M421.2,76.9c-3.3,0-5.9-1.1-7.9-3.2c-2-2.1-2.9-4.8-2.9-8.2c0-3.6,1-6.4,3-8.6c2-2.2,4.8-3.2,8.2-3.2
			c3.1,0,5.7,1,7.6,3.1c1.9,2.1,2.9,4.8,2.9,8.1c0,3.7-1,6.6-3,8.8C427.2,75.9,424.6,76.9,421.2,76.9z M421.4,55.1
			c-2.7,0-4.9,0.9-6.7,2.8c-1.8,1.9-2.6,4.4-2.6,7.4c0,3.1,0.8,5.5,2.5,7.4c1.7,1.8,3.9,2.7,6.6,2.7c2.9,0,5.2-0.9,6.8-2.7
			c1.7-1.8,2.5-4.3,2.5-7.6c0-3.2-0.8-5.6-2.5-7.4C426.4,56,424.2,55.1,421.4,55.1z"/>
		<path class="st2" d="M448,76.5v-9.3c0-3.8-1.4-5.8-4.3-5.8c-1.6,0-2.9,0.6-4,1.7c-1,1.1-1.5,2.5-1.5,4.2v9.2h-1.5v-16h1.5v2.9h0.1
			c1.2-2.2,3.1-3.3,5.7-3.3c1.8,0,3.2,0.6,4.1,1.7c1,1.2,1.4,2.8,1.4,4.9v9.7H448z"/>
		<path class="st2" d="M461.1,76.3c-0.8,0.4-1.5,0.5-2.2,0.5c-2.5,0-3.7-1.4-3.7-4.3V61.8h-3v-1.3h3v-4.2c0.2-0.1,0.5-0.2,0.7-0.3
			c0.3-0.1,0.5-0.2,0.7-0.2v4.6h4.4v1.3h-4.4v10.6c0,1.1,0.2,1.9,0.5,2.4c0.4,0.5,1,0.7,1.8,0.7c0.6,0,1.3-0.2,2-0.6V76.3z"/>
		<path class="st2" d="M474.3,76.5v-3.2h-0.1c-0.5,1.1-1.3,2-2.3,2.6c-1,0.7-2.1,1-3.4,1c-1.6,0-2.8-0.4-3.8-1.3
			c-0.9-0.9-1.4-1.9-1.4-3.2c0-2.8,1.9-4.5,5.8-5.1l5.1-0.7c0-3.4-1.3-5.2-4-5.2c-1.8,0-3.6,0.7-5.4,2.1v-1.7
			c0.6-0.5,1.5-0.9,2.5-1.2c1.1-0.3,2.1-0.5,3-0.5c1.7,0,3,0.5,4,1.5c0.9,1,1.4,2.5,1.4,4.5v10.4H474.3z M469.7,68.6
			c-1.7,0.2-3,0.6-3.7,1.2s-1.1,1.4-1.1,2.6c0,0.9,0.3,1.7,1,2.3c0.7,0.6,1.6,0.9,2.7,0.9c1.6,0,2.9-0.6,4-1.7
			c1.1-1.1,1.6-2.6,1.6-4.4v-1.6L469.7,68.6z"/>
		<path class="st2" d="M488.7,62c-0.5-0.3-1.1-0.5-1.8-0.5c-1.3,0-2.4,0.7-3.3,2c-0.9,1.3-1.3,3.2-1.3,5.6v7.5h-1.5v-16h1.5v3.6h0.1
			c0.4-1.2,1-2.2,1.8-2.8c0.8-0.7,1.8-1,2.9-1c0.6,0,1.2,0.1,1.7,0.3V62z"/>
		<path class="st2" d="M492.5,56.5c-0.3,0-0.6-0.1-0.9-0.3c-0.2-0.2-0.4-0.5-0.4-0.9c0-0.3,0.1-0.6,0.4-0.8c0.3-0.2,0.5-0.3,0.9-0.3
			c0.3,0,0.6,0.1,0.9,0.3c0.3,0.2,0.4,0.5,0.4,0.8c0,0.3-0.1,0.6-0.4,0.9C493.2,56.4,492.9,56.5,492.5,56.5z M491.8,76.5v-16h1.5v16
			H491.8z"/>
		<path class="st2" d="M505.3,76.9c-2.4,0-4.4-0.8-5.8-2.3c-1.4-1.5-2.1-3.5-2.1-6c0-2.7,0.7-4.7,2.2-6.2c1.5-1.5,3.4-2.3,5.8-2.3
			c2.4,0,4.2,0.7,5.6,2.2c1.4,1.5,2.1,3.6,2.1,6.2c0,2.5-0.7,4.5-2.1,6.1C509.7,76.2,507.8,76.9,505.3,76.9z M505.4,61.4
			c-2,0-3.5,0.6-4.7,1.9c-1.2,1.3-1.7,3-1.7,5.3c0,2.1,0.6,3.8,1.7,5.1c1.1,1.3,2.7,1.9,4.7,1.9c2,0,3.6-0.6,4.6-1.9
			c1.1-1.3,1.6-3,1.6-5.2c0-2.3-0.5-4-1.6-5.3C508.9,62.1,507.4,61.4,505.4,61.4z"/>
	</g>
</g>
<g>
	<rect x="319.2" y="17.5" class="st2" width="2" height="65.4"/>
</g>
</svg>
